999
DXF created by Inkscape
  0
SECTION
  2
HEADER
  9
$ACADVER
  1
AC1014
  9
$HANDSEED
  5
FFFF
  9
$MEASUREMENT
 70
     1
  0
ENDSEC
  0
SECTION
  2
TABLES
  0
TABLE
  2
VPORT
  5
8
330
0
100
AcDbSymbolTable
 70
     4
  0
VPORT
  5
2E
330
8
100
AcDbSymbolTableRecord
100
AcDbViewportTableRecord
  2
*ACTIVE
 70
     0
 10
0.0
 20
0.0
 11
1.0
 21
1.0
 12
210.0
 22
148.5
 13
0.0
 23
0.0
 14
10.0
 24
10.0
 15
10.0
 25
10.0
 16
0.0
 26
0.0
 36
1.0
 17
0.0
 27
0.0
 37
0.0
 40
341.0
 41
1.24
 42
50.0
 43
0.0
 44
0.0
 50
0.0
 51
0.0
 71
     0
 72
   100
 73
     1
 74
     3
 75
     0
 76
     0
 77
     0
 78
     0
  0
ENDTAB
  0
TABLE
  2
LTYPE
  5
5
330
0
100
AcDbSymbolTable
 70
     1
  0
LTYPE
  5
14
330
5
100
AcDbSymbolTableRecord
100
AcDbLinetypeTableRecord
  2
BYBLOCK
 70
     0
  3

 72
    65
 73
     0
 40
0.0
  0
LTYPE
  5
15
330
5
100
AcDbSymbolTableRecord
100
AcDbLinetypeTableRecord
  2
BYLAYER
 70
     0
  3

 72
    65
 73
     0
 40
0.0
  0
LTYPE
  5
16
330
5
100
AcDbSymbolTableRecord
100
AcDbLinetypeTableRecord
  2
CONTINUOUS
 70
     0
  3
Solid line
 72
    65
 73
     0
 40
0.0
  0
ENDTAB
  0
TABLE
  2
LAYER
  5
2
100
AcDbSymbolTable
 70
1
  0
LAYER
  5
50
100
AcDbSymbolTableRecord
100
AcDbLayerTableRecord
  2
0
 70
0
  6
CONTINUOUS
  0
ENDTAB
  0
TABLE
  2
STYLE
  5
3
330
0
100
AcDbSymbolTable
 70
     1
  0
STYLE
  5
11
330
3
100
AcDbSymbolTableRecord
100
AcDbTextStyleTableRecord
  2
STANDARD
 70
     0
 40
0.0
 41
1.0
 50
0.0
 71
     0
 42
2.5
  3
txt
  4

  0
ENDTAB
  0
TABLE
  2
VIEW
  5
6
330
0
100
AcDbSymbolTable
 70
     0
  0
ENDTAB
  0
TABLE
  2
UCS
  5
7
330
0
100
AcDbSymbolTable
 70
     0
  0
ENDTAB
  0
TABLE
  2
APPID
  5
9
330
0
100
AcDbSymbolTable
 70
     2
  0
APPID
  5
12
330
9
100
AcDbSymbolTableRecord
100
AcDbRegAppTableRecord
  2
ACAD
 70
     0
  0
ENDTAB
  0
TABLE
  2
DIMSTYLE
  5
A
330
0
100
AcDbSymbolTable
 70
     1
  0
DIMSTYLE
105
27
330
A
100
AcDbSymbolTableRecord
100
AcDbDimStyleTableRecord
  2
ISO-25
 70
     0
  3

  4

  5

  6

  7

 40
1.0
 41
2.5
 42
0.625
 43
3.75
 44
1.25
 45
0.0
 46
0.0
 47
0.0
 48
0.0
140
2.5
141
2.5
142
0.0
143
0.03937007874016
144
1.0
145
0.0
146
1.0
147
0.625
 71
     0
 72
     0
 73
     0
 74
     0
 75
     0
 76
     0
 77
     1
 78
     8
170
     0
171
     3
172
     1
173
     0
174
     0
175
     0
176
     0
177
     0
178
     0
270
     2
271
     2
272
     2
273
     2
274
     3
340
11
275
     0
280
     0
281
     0
282
     0
283
     0
284
     8
285
     0
286
     0
287
     3
288
     0
  0
ENDTAB
  0
TABLE
  2
BLOCK_RECORD
  5
1
330
0
100
AcDbSymbolTable
 70
     1
  0
BLOCK_RECORD
  5
1F
330
1
100
AcDbSymbolTableRecord
100
AcDbBlockTableRecord
  2
*MODEL_SPACE
  0
BLOCK_RECORD
  5
1B
330
1
100
AcDbSymbolTableRecord
100
AcDbBlockTableRecord
  2
*PAPER_SPACE
  0
ENDTAB
  0
ENDSEC
  0
SECTION
  2
BLOCKS
  0
BLOCK
  5
20
330
1F
100
AcDbEntity
  8
0
100
AcDbBlockBegin
  2
*MODEL_SPACE
 70
     0
 10
0.0
 20
0.0
 30
0.0
  3
*MODEL_SPACE
  1

  0
ENDBLK
  5
21
330
1F
100
AcDbEntity
  8
0
100
AcDbBlockEnd
  0
BLOCK
  5
1C
330
1B
100
AcDbEntity
 67
     1
  8
0
100
AcDbBlockBegin
  2
*PAPER_SPACE
  1

  0
ENDBLK
  5
1D
330
1B
100
AcDbEntity
 67
     1
  8
0
100
AcDbBlockEnd
  0
ENDSEC
  0
SECTION
  2
ENTITIES
  0
LWPOLYLINE
  5
100
100
AcDbEntity
  8
0
 62
7
100
AcDbPolyline
 90
9
 70
0
 10
38.382222
 20
11.288889
 30
0.0
 10
38.382222
 20
12.453541
 30
0.0
 10
39.299444
 20
12.365104
 30
0.0
 10
40.216667
 20
12.276667
 30
0.0
 10
40.216667
 20
11.288889
 30
0.0
 10
40.216667
 20
10.301111
 30
0.0
 10
39.299444
 20
10.212674
 30
0.0
 10
38.382222
 20
10.124237
 30
0.0
 10
38.382222
 20
11.288889
 30
0.0
  0
LWPOLYLINE
  5
101
100
AcDbEntity
  8
0
 62
7
100
AcDbPolyline
 90
9
 70
0
 10
38.382222
 20
14.816667
 30
0.0
 10
38.382222
 20
15.804444
 30
0.0
 10
39.370000
 20
15.804444
 30
0.0
 10
40.357778
 20
15.804444
 30
0.0
 10
40.357778
 20
14.816667
 30
0.0
 10
40.357778
 20
13.828889
 30
0.0
 10
39.370000
 20
13.828889
 30
0.0
 10
38.382222
 20
13.828889
 30
0.0
 10
38.382222
 20
14.816667
 30
0.0
  0
LWPOLYLINE
  5
102
100
AcDbEntity
  8
0
 62
7
100
AcDbPolyline
 90
9
 70
0
 10
25.682222
 20
23.988889
 30
0.0
 10
25.682222
 20
25.153541
 30
0.0
 10
26.599444
 20
25.065104
 30
0.0
 10
27.516667
 20
24.976667
 30
0.0
 10
27.516667
 20
23.988889
 30
0.0
 10
27.516667
 20
23.001111
 30
0.0
 10
26.599444
 20
22.912674
 30
0.0
 10
25.682222
 20
22.824237
 30
0.0
 10
25.682222
 20
23.988889
 30
0.0
  0
LWPOLYLINE
  5
103
100
AcDbEntity
  8
0
 62
7
100
AcDbPolyline
 90
9
 70
0
 10
51.082222
 20
23.988889
 30
0.0
 10
51.082222
 20
25.153541
 30
0.0
 10
51.999444
 20
25.065104
 30
0.0
 10
52.916667
 20
24.976667
 30
0.0
 10
52.916667
 20
23.988889
 30
0.0
 10
52.916667
 20
23.001111
 30
0.0
 10
51.999444
 20
22.912674
 30
0.0
 10
51.082222
 20
22.824237
 30
0.0
 10
51.082222
 20
23.988889
 30
0.0
  0
LWPOLYLINE
  5
104
100
AcDbEntity
  8
0
 62
7
100
AcDbPolyline
 90
9
 70
0
 10
25.682222
 20
27.516667
 30
0.0
 10
25.682222
 20
28.504444
 30
0.0
 10
26.670000
 20
28.504444
 30
0.0
 10
27.657778
 20
28.504444
 30
0.0
 10
27.657778
 20
27.516667
 30
0.0
 10
27.657778
 20
26.528889
 30
0.0
 10
26.670000
 20
26.528889
 30
0.0
 10
25.682222
 20
26.528889
 30
0.0
 10
25.682222
 20
27.516667
 30
0.0
  0
LWPOLYLINE
  5
105
100
AcDbEntity
  8
0
 62
7
100
AcDbPolyline
 90
9
 70
0
 10
51.082222
 20
27.516667
 30
0.0
 10
51.082222
 20
28.504444
 30
0.0
 10
52.070000
 20
28.504444
 30
0.0
 10
53.057778
 20
28.504444
 30
0.0
 10
53.057778
 20
27.516667
 30
0.0
 10
53.057778
 20
26.528889
 30
0.0
 10
52.070000
 20
26.528889
 30
0.0
 10
51.082222
 20
26.528889
 30
0.0
 10
51.082222
 20
27.516667
 30
0.0
  0
LWPOLYLINE
  5
106
100
AcDbEntity
  8
0
 62
7
100
AcDbPolyline
 90
9
 70
0
 10
35.560000
 20
34.854444
 30
0.0
 10
35.560000
 20
36.688889
 30
0.0
 10
36.124444
 20
36.688889
 30
0.0
 10
36.688889
 20
36.688889
 30
0.0
 10
36.688889
 20
34.854444
 30
0.0
 10
36.688889
 20
33.020000
 30
0.0
 10
36.124444
 20
33.020000
 30
0.0
 10
35.560000
 20
33.020000
 30
0.0
 10
35.560000
 20
34.854444
 30
0.0
  0
LWPOLYLINE
  5
107
100
AcDbEntity
  8
0
 62
7
100
AcDbPolyline
 90
9
 70
0
 10
37.817778
 20
34.854444
 30
0.0
 10
37.817778
 20
36.688889
 30
0.0
 10
38.241111
 20
36.688889
 30
0.0
 10
38.664444
 20
36.688889
 30
0.0
 10
38.664444
 20
34.854444
 30
0.0
 10
38.664444
 20
33.020000
 30
0.0
 10
38.241111
 20
33.020000
 30
0.0
 10
37.817778
 20
33.020000
 30
0.0
 10
37.817778
 20
34.854444
 30
0.0
  0
LWPOLYLINE
  5
108
100
AcDbEntity
  8
0
 62
7
100
AcDbPolyline
 90
9
 70
0
 10
39.793333
 20
34.854444
 30
0.0
 10
39.793333
 20
36.688889
 30
0.0
 10
40.357778
 20
36.688889
 30
0.0
 10
40.922222
 20
36.688889
 30
0.0
 10
40.922222
 20
34.854444
 30
0.0
 10
40.922222
 20
33.020000
 30
0.0
 10
40.357778
 20
33.020000
 30
0.0
 10
39.793333
 20
33.020000
 30
0.0
 10
39.793333
 20
34.854444
 30
0.0
  0
LWPOLYLINE
  5
109
100
AcDbEntity
  8
0
 62
7
100
AcDbPolyline
 90
9
 70
0
 10
42.051111
 20
34.854444
 30
0.0
 10
42.051111
 20
36.688889
 30
0.0
 10
42.474444
 20
36.688889
 30
0.0
 10
42.897778
 20
36.688889
 30
0.0
 10
42.897778
 20
34.854444
 30
0.0
 10
42.897778
 20
33.020000
 30
0.0
 10
42.474444
 20
33.020000
 30
0.0
 10
42.051111
 20
33.020000
 30
0.0
 10
42.051111
 20
34.854444
 30
0.0
  0
LWPOLYLINE
  5
10a
100
AcDbEntity
  8
0
 62
7
100
AcDbPolyline
 90
9
 70
0
 10
17.215556
 20
36.688889
 30
0.0
 10
17.215556
 20
37.853541
 30
0.0
 10
18.132778
 20
37.765104
 30
0.0
 10
19.050000
 20
37.676667
 30
0.0
 10
19.050000
 20
36.688889
 30
0.0
 10
19.050000
 20
35.701111
 30
0.0
 10
18.132778
 20
35.612674
 30
0.0
 10
17.215556
 20
35.524237
 30
0.0
 10
17.215556
 20
36.688889
 30
0.0
  0
LWPOLYLINE
  5
10b
100
AcDbEntity
  8
0
 62
7
100
AcDbPolyline
 90
9
 70
0
 10
59.548889
 20
36.688889
 30
0.0
 10
59.548889
 20
37.853541
 30
0.0
 10
60.466111
 20
37.765104
 30
0.0
 10
61.383333
 20
37.676667
 30
0.0
 10
61.383333
 20
36.688889
 30
0.0
 10
61.383333
 20
35.701111
 30
0.0
 10
60.466111
 20
35.612674
 30
0.0
 10
59.548889
 20
35.524237
 30
0.0
 10
59.548889
 20
36.688889
 30
0.0
  0
LWPOLYLINE
  5
10c
100
AcDbEntity
  8
0
 62
7
100
AcDbPolyline
 90
9
 70
0
 10
31.044444
 20
37.817778
 30
0.0
 10
31.044444
 20
39.228889
 30
0.0
 10
32.455556
 20
39.228889
 30
0.0
 10
33.866667
 20
39.228889
 30
0.0
 10
33.866667
 20
37.817778
 30
0.0
 10
33.866667
 20
36.406667
 30
0.0
 10
32.455556
 20
36.406667
 30
0.0
 10
31.044444
 20
36.406667
 30
0.0
 10
31.044444
 20
37.817778
 30
0.0
  0
LWPOLYLINE
  5
10d
100
AcDbEntity
  8
0
 62
7
100
AcDbPolyline
 90
9
 70
0
 10
46.566667
 20
39.528149
 30
0.0
 10
46.566667
 20
40.391850
 30
0.0
 10
47.625000
 20
40.304260
 30
0.0
 10
48.683333
 20
40.216667
 30
0.0
 10
48.772634
 20
39.440556
 30
0.0
 10
48.861935
 20
38.664444
 30
0.0
 10
47.714301
 20
38.664444
 30
0.0
 10
46.566667
 20
38.664444
 30
0.0
 10
46.566667
 20
39.528149
 30
0.0
  0
LWPOLYLINE
  5
10e
100
AcDbEntity
  8
0
 62
7
100
AcDbPolyline
 90
9
 70
0
 10
17.215556
 20
40.216667
 30
0.0
 10
17.215556
 20
41.204444
 30
0.0
 10
18.203333
 20
41.204444
 30
0.0
 10
19.191111
 20
41.204444
 30
0.0
 10
19.191111
 20
40.216667
 30
0.0
 10
19.191111
 20
39.228889
 30
0.0
 10
18.203333
 20
39.228889
 30
0.0
 10
17.215556
 20
39.228889
 30
0.0
 10
17.215556
 20
40.216667
 30
0.0
  0
LWPOLYLINE
  5
10f
100
AcDbEntity
  8
0
 62
7
100
AcDbPolyline
 90
9
 70
0
 10
59.548889
 20
40.216667
 30
0.0
 10
59.548889
 20
41.204444
 30
0.0
 10
60.536667
 20
41.204444
 30
0.0
 10
61.524444
 20
41.204444
 30
0.0
 10
61.524444
 20
40.216667
 30
0.0
 10
61.524444
 20
39.228889
 30
0.0
 10
60.536667
 20
39.228889
 30
0.0
 10
59.548889
 20
39.228889
 30
0.0
 10
59.548889
 20
40.216667
 30
0.0
  0
LWPOLYLINE
  5
110
100
AcDbEntity
  8
0
 62
7
100
AcDbPolyline
 90
9
 70
0
 10
50.235556
 20
40.922222
 30
0.0
 10
50.235556
 20
41.768889
 30
0.0
 10
51.364444
 20
41.768889
 30
0.0
 10
52.493333
 20
41.768889
 30
0.0
 10
52.493333
 20
40.922222
 30
0.0
 10
52.493333
 20
40.075556
 30
0.0
 10
51.364444
 20
40.075556
 30
0.0
 10
50.235556
 20
40.075556
 30
0.0
 10
50.235556
 20
40.922222
 30
0.0
  0
LWPOLYLINE
  5
111
100
AcDbEntity
  8
0
 62
7
100
AcDbPolyline
 90
9
 70
0
 10
31.044444
 20
42.474444
 30
0.0
 10
31.044444
 20
43.744444
 30
0.0
 10
32.455556
 20
43.744444
 30
0.0
 10
33.866667
 20
43.744444
 30
0.0
 10
33.866667
 20
42.474444
 30
0.0
 10
33.866667
 20
41.204444
 30
0.0
 10
32.455556
 20
41.204444
 30
0.0
 10
31.044444
 20
41.204444
 30
0.0
 10
31.044444
 20
42.474444
 30
0.0
  0
LWPOLYLINE
  5
112
100
AcDbEntity
  8
0
 62
7
100
AcDbPolyline
 90
9
 70
0
 10
46.566667
 20
42.615556
 30
0.0
 10
46.566667
 20
43.462222
 30
0.0
 10
47.695556
 20
43.462222
 30
0.0
 10
48.824444
 20
43.462222
 30
0.0
 10
48.824444
 20
42.615556
 30
0.0
 10
48.824444
 20
41.768889
 30
0.0
 10
47.695556
 20
41.768889
 30
0.0
 10
46.566667
 20
41.768889
 30
0.0
 10
46.566667
 20
42.615556
 30
0.0
  0
LWPOLYLINE
  5
113
100
AcDbEntity
  8
0
 62
7
100
AcDbPolyline
 90
9
 70
0
 10
35.560000
 20
46.143333
 30
0.0
 10
35.560000
 20
47.977778
 30
0.0
 10
36.124444
 20
47.977778
 30
0.0
 10
36.688889
 20
47.977778
 30
0.0
 10
36.688889
 20
46.143333
 30
0.0
 10
36.688889
 20
44.308889
 30
0.0
 10
36.124444
 20
44.308889
 30
0.0
 10
35.560000
 20
44.308889
 30
0.0
 10
35.560000
 20
46.143333
 30
0.0
  0
LWPOLYLINE
  5
114
100
AcDbEntity
  8
0
 62
7
100
AcDbPolyline
 90
9
 70
0
 10
37.817778
 20
46.143333
 30
0.0
 10
37.817778
 20
47.977778
 30
0.0
 10
38.241111
 20
47.977778
 30
0.0
 10
38.664444
 20
47.977778
 30
0.0
 10
38.664444
 20
46.143333
 30
0.0
 10
38.664444
 20
44.308889
 30
0.0
 10
38.241111
 20
44.308889
 30
0.0
 10
37.817778
 20
44.308889
 30
0.0
 10
37.817778
 20
46.143333
 30
0.0
  0
LWPOLYLINE
  5
115
100
AcDbEntity
  8
0
 62
7
100
AcDbPolyline
 90
9
 70
0
 10
39.793333
 20
46.143333
 30
0.0
 10
39.793333
 20
47.977778
 30
0.0
 10
40.357778
 20
47.977778
 30
0.0
 10
40.922222
 20
47.977778
 30
0.0
 10
40.922222
 20
46.143333
 30
0.0
 10
40.922222
 20
44.308889
 30
0.0
 10
40.357778
 20
44.308889
 30
0.0
 10
39.793333
 20
44.308889
 30
0.0
 10
39.793333
 20
46.143333
 30
0.0
  0
LWPOLYLINE
  5
116
100
AcDbEntity
  8
0
 62
7
100
AcDbPolyline
 90
9
 70
0
 10
42.051111
 20
46.143333
 30
0.0
 10
42.051111
 20
47.977778
 30
0.0
 10
42.474444
 20
47.977778
 30
0.0
 10
42.897778
 20
47.977778
 30
0.0
 10
42.897778
 20
46.143333
 30
0.0
 10
42.897778
 20
44.308889
 30
0.0
 10
42.474444
 20
44.308889
 30
0.0
 10
42.051111
 20
44.308889
 30
0.0
 10
42.051111
 20
46.143333
 30
0.0
  0
LWPOLYLINE
  5
117
100
AcDbEntity
  8
0
 62
7
100
AcDbPolyline
 90
9
 70
0
 10
47.695556
 20
46.990000
 30
0.0
 10
47.695556
 20
47.977778
 30
0.0
 10
48.965556
 20
47.977778
 30
0.0
 10
50.235556
 20
47.977778
 30
0.0
 10
50.235556
 20
46.990000
 30
0.0
 10
50.235556
 20
46.002222
 30
0.0
 10
48.965556
 20
46.002222
 30
0.0
 10
47.695556
 20
46.002222
 30
0.0
 10
47.695556
 20
46.990000
 30
0.0
  0
LWPOLYLINE
  5
118
100
AcDbEntity
  8
0
 62
7
100
AcDbPolyline
 90
10
 70
0
 10
9.141046
 20
48.662807
 30
0.0
 10
9.079348
 20
49.721141
 30
0.0
 10
9.172222
 20
50.376667
 30
0.0
 10
10.089444
 20
50.465104
 30
0.0
 10
11.006667
 20
50.553541
 30
0.0
 10
11.006667
 20
49.406770
 30
0.0
 10
11.006667
 20
48.260000
 30
0.0
 10
10.151142
 20
48.260000
 30
0.0
 10
9.295618
 20
48.260000
 30
0.0
 10
9.141046
 20
48.662807
 30
0.0
  0
LWPOLYLINE
  5
119
100
AcDbEntity
  8
0
 62
7
100
AcDbPolyline
 90
9
 70
0
 10
69.708889
 20
49.388889
 30
0.0
 10
69.708889
 20
50.553541
 30
0.0
 10
70.626111
 20
50.465104
 30
0.0
 10
71.543333
 20
50.376667
 30
0.0
 10
71.543333
 20
49.388889
 30
0.0
 10
71.543333
 20
48.401111
 30
0.0
 10
70.626111
 20
48.312674
 30
0.0
 10
69.708889
 20
48.224237
 30
0.0
 10
69.708889
 20
49.388889
 30
0.0
  0
LWPOLYLINE
  5
11a
100
AcDbEntity
  8
0
 62
7
100
AcDbPolyline
 90
9
 70
0
 10
47.749073
 20
50.165000
 30
0.0
 10
47.836667
 20
51.223333
 30
0.0
 10
49.036111
 20
51.310117
 30
0.0
 10
50.235556
 20
51.396900
 30
0.0
 10
50.235556
 20
50.251783
 30
0.0
 10
50.235556
 20
49.106667
 30
0.0
 10
48.948518
 20
49.106667
 30
0.0
 10
47.661483
 20
49.106667
 30
0.0
 10
47.749073
 20
50.165000
 30
0.0
  0
LWPOLYLINE
  5
11b
100
AcDbEntity
  8
0
 62
7
100
AcDbPolyline
 90
9
 70
0
 10
33.302222
 20
51.787778
 30
0.0
 10
33.302222
 20
52.493333
 30
0.0
 10
34.572222
 20
52.493333
 30
0.0
 10
35.842222
 20
52.493333
 30
0.0
 10
35.842222
 20
51.787778
 30
0.0
 10
35.842222
 20
51.082222
 30
0.0
 10
34.572222
 20
51.082222
 30
0.0
 10
33.302222
 20
51.082222
 30
0.0
 10
33.302222
 20
51.787778
 30
0.0
  0
LWPOLYLINE
  5
11c
100
AcDbEntity
  8
0
 62
7
100
AcDbPolyline
 90
9
 70
0
 10
41.768889
 20
51.787778
 30
0.0
 10
41.768889
 20
52.493333
 30
0.0
 10
43.038889
 20
52.493333
 30
0.0
 10
44.308889
 20
52.493333
 30
0.0
 10
44.308889
 20
51.787778
 30
0.0
 10
44.308889
 20
51.082222
 30
0.0
 10
43.038889
 20
51.082222
 30
0.0
 10
41.768889
 20
51.082222
 30
0.0
 10
41.768889
 20
51.787778
 30
0.0
  0
LWPOLYLINE
  5
11d
100
AcDbEntity
  8
0
 62
7
100
AcDbPolyline
 90
9
 70
0
 10
9.031111
 20
52.916667
 30
0.0
 10
9.031111
 20
53.904444
 30
0.0
 10
10.018889
 20
53.904444
 30
0.0
 10
11.006667
 20
53.904444
 30
0.0
 10
11.006667
 20
52.916667
 30
0.0
 10
11.006667
 20
51.928889
 30
0.0
 10
10.018889
 20
51.928889
 30
0.0
 10
9.031111
 20
51.928889
 30
0.0
 10
9.031111
 20
52.916667
 30
0.0
  0
LWPOLYLINE
  5
11e
100
AcDbEntity
  8
0
 62
7
100
AcDbPolyline
 90
9
 70
0
 10
69.708889
 20
52.916667
 30
0.0
 10
69.708889
 20
53.904444
 30
0.0
 10
70.696667
 20
53.904444
 30
0.0
 10
71.684444
 20
53.904444
 30
0.0
 10
71.684444
 20
52.916667
 30
0.0
 10
71.684444
 20
51.928889
 30
0.0
 10
70.696667
 20
51.928889
 30
0.0
 10
69.708889
 20
51.928889
 30
0.0
 10
69.708889
 20
52.916667
 30
0.0
  0
LWPOLYLINE
  5
11f
100
AcDbEntity
  8
0
 62
7
100
AcDbPolyline
 90
9
 70
0
 10
33.302222
 20
58.137778
 30
0.0
 10
33.302222
 20
58.702222
 30
0.0
 10
34.572222
 20
58.702222
 30
0.0
 10
35.842222
 20
58.702222
 30
0.0
 10
35.842222
 20
58.137778
 30
0.0
 10
35.842222
 20
57.573333
 30
0.0
 10
34.572222
 20
57.573333
 30
0.0
 10
33.302222
 20
57.573333
 30
0.0
 10
33.302222
 20
58.137778
 30
0.0
  0
LWPOLYLINE
  5
120
100
AcDbEntity
  8
0
 62
7
100
AcDbPolyline
 90
9
 70
0
 10
41.768889
 20
58.137778
 30
0.0
 10
41.768889
 20
58.702222
 30
0.0
 10
43.038889
 20
58.702222
 30
0.0
 10
44.308889
 20
58.702222
 30
0.0
 10
44.308889
 20
58.137778
 30
0.0
 10
44.308889
 20
57.573333
 30
0.0
 10
43.038889
 20
57.573333
 30
0.0
 10
41.768889
 20
57.573333
 30
0.0
 10
41.768889
 20
58.137778
 30
0.0
  0
LWPOLYLINE
  5
121
100
AcDbEntity
  8
0
 62
7
100
AcDbPolyline
 90
9
 70
0
 10
36.124444
 20
63.358889
 30
0.0
 10
36.124444
 20
64.628889
 30
0.0
 10
37.253333
 20
64.628889
 30
0.0
 10
38.382222
 20
64.628889
 30
0.0
 10
38.382222
 20
63.358889
 30
0.0
 10
38.382222
 20
62.088889
 30
0.0
 10
37.253333
 20
62.088889
 30
0.0
 10
36.124444
 20
62.088889
 30
0.0
 10
36.124444
 20
63.358889
 30
0.0
  0
LWPOLYLINE
  5
122
100
AcDbEntity
  8
0
 62
7
100
AcDbPolyline
 90
9
 70
0
 10
39.511111
 20
63.358889
 30
0.0
 10
39.511111
 20
64.628889
 30
0.0
 10
40.498889
 20
64.628889
 30
0.0
 10
41.486667
 20
64.628889
 30
0.0
 10
41.486667
 20
63.358889
 30
0.0
 10
41.486667
 20
62.088889
 30
0.0
 10
40.498889
 20
62.088889
 30
0.0
 10
39.511111
 20
62.088889
 30
0.0
 10
39.511111
 20
63.358889
 30
0.0
  0
LWPOLYLINE
  5
123
100
AcDbEntity
  8
0
 62
7
100
AcDbPolyline
 90
9
 70
0
 10
72.248889
 20
64.205556
 30
0.0
 10
72.248889
 20
65.193333
 30
0.0
 10
73.236667
 20
65.193333
 30
0.0
 10
74.224444
 20
65.193333
 30
0.0
 10
74.224444
 20
64.205556
 30
0.0
 10
74.224444
 20
63.217778
 30
0.0
 10
73.236667
 20
63.217778
 30
0.0
 10
72.248889
 20
63.217778
 30
0.0
 10
72.248889
 20
64.205556
 30
0.0
  0
LWPOLYLINE
  5
124
100
AcDbEntity
  8
0
 62
7
100
AcDbPolyline
 90
10
 70
0
 10
5.754380
 20
63.902807
 30
0.0
 10
5.692682
 20
64.961141
 30
0.0
 10
5.785556
 20
65.616667
 30
0.0
 10
6.702778
 20
65.705104
 30
0.0
 10
7.620000
 20
65.793541
 30
0.0
 10
7.620000
 20
64.646770
 30
0.0
 10
7.620000
 20
63.500000
 30
0.0
 10
6.764476
 20
63.500000
 30
0.0
 10
5.908952
 20
63.500000
 30
0.0
 10
5.754380
 20
63.902807
 30
0.0
  0
LWPOLYLINE
  5
125
100
AcDbEntity
  8
0
 62
7
100
AcDbPolyline
 90
9
 70
0
 10
72.248889
 20
67.574341
 30
0.0
 10
72.248889
 20
68.580000
 30
0.0
 10
73.254548
 20
68.580000
 30
0.0
 10
74.260208
 20
68.580000
 30
0.0
 10
74.171770
 20
67.662778
 30
0.0
 10
74.083333
 20
66.745556
 30
0.0
 10
73.166111
 20
66.657118
 30
0.0
 10
72.248889
 20
66.568681
 30
0.0
 10
72.248889
 20
67.574341
 30
0.0
  0
LWPOLYLINE
  5
126
100
AcDbEntity
  8
0
 62
7
100
AcDbPolyline
 90
9
 70
0
 10
46.338772
 20
68.086111
 30
0.0
 10
46.425556
 20
69.285556
 30
0.0
 10
47.483889
 20
69.373147
 30
0.0
 10
48.542222
 20
69.460740
 30
0.0
 10
48.542222
 20
68.173704
 30
0.0
 10
48.542222
 20
66.886667
 30
0.0
 10
47.397106
 20
66.886667
 30
0.0
 10
46.251989
 20
66.886667
 30
0.0
 10
46.338772
 20
68.086111
 30
0.0
  0
LWPOLYLINE
  5
127
100
AcDbEntity
  8
0
 62
7
100
AcDbPolyline
 90
9
 70
0
 10
49.671111
 20
68.156667
 30
0.0
 10
49.671111
 20
69.426667
 30
0.0
 10
50.658889
 20
69.426667
 30
0.0
 10
51.646667
 20
69.426667
 30
0.0
 10
51.646667
 20
68.156667
 30
0.0
 10
51.646667
 20
66.886667
 30
0.0
 10
50.658889
 20
66.886667
 30
0.0
 10
49.671111
 20
66.886667
 30
0.0
 10
49.671111
 20
68.156667
 30
0.0
  0
LWPOLYLINE
  5
128
100
AcDbEntity
  8
0
 62
7
100
AcDbPolyline
 90
9
 70
0
 10
5.644444
 20
68.156667
 30
0.0
 10
5.644444
 20
69.144444
 30
0.0
 10
6.632222
 20
69.144444
 30
0.0
 10
7.620000
 20
69.144444
 30
0.0
 10
7.620000
 20
68.156667
 30
0.0
 10
7.620000
 20
67.168889
 30
0.0
 10
6.632222
 20
67.168889
 30
0.0
 10
5.644444
 20
67.168889
 30
0.0
 10
5.644444
 20
68.156667
 30
0.0
  0
LWPOLYLINE
  5
129
100
AcDbEntity
  8
0
 62
7
100
AcDbPolyline
 90
9
 70
0
 10
27.657778
 20
68.438889
 30
0.0
 10
27.657778
 20
69.708889
 30
0.0
 10
28.786667
 20
69.708889
 30
0.0
 10
29.915556
 20
69.708889
 30
0.0
 10
29.915556
 20
68.438889
 30
0.0
 10
29.915556
 20
67.168889
 30
0.0
 10
28.786667
 20
67.168889
 30
0.0
 10
27.657778
 20
67.168889
 30
0.0
 10
27.657778
 20
68.438889
 30
0.0
  0
LWPOLYLINE
  5
12a
100
AcDbEntity
  8
0
 62
7
100
AcDbPolyline
 90
9
 70
0
 10
31.044444
 20
68.438889
 30
0.0
 10
31.044444
 20
69.708889
 30
0.0
 10
32.032222
 20
69.708889
 30
0.0
 10
33.020000
 20
69.708889
 30
0.0
 10
33.020000
 20
68.438889
 30
0.0
 10
33.020000
 20
67.168889
 30
0.0
 10
32.032222
 20
67.168889
 30
0.0
 10
31.044444
 20
67.168889
 30
0.0
 10
31.044444
 20
68.438889
 30
0.0
  0
LWPOLYLINE
  5
12b
100
AcDbEntity
  8
0
 62
7
100
AcDbPolyline
 90
9
 70
0
 10
38.382222
 20
68.438889
 30
0.0
 10
38.382222
 20
69.426667
 30
0.0
 10
39.370000
 20
69.426667
 30
0.0
 10
40.357778
 20
69.426667
 30
0.0
 10
40.357778
 20
68.438889
 30
0.0
 10
40.357778
 20
67.451111
 30
0.0
 10
39.370000
 20
67.451111
 30
0.0
 10
38.382222
 20
67.451111
 30
0.0
 10
38.382222
 20
68.438889
 30
0.0
  0
LWPOLYLINE
  5
12c
100
AcDbEntity
  8
0
 62
7
100
AcDbPolyline
 90
9
 70
0
 10
38.382222
 20
71.807675
 30
0.0
 10
38.382222
 20
72.813333
 30
0.0
 10
39.387882
 20
72.813333
 30
0.0
 10
40.393541
 20
72.813333
 30
0.0
 10
40.305104
 20
71.896111
 30
0.0
 10
40.216667
 20
70.978889
 30
0.0
 10
39.299444
 20
70.890452
 30
0.0
 10
38.382222
 20
70.802015
 30
0.0
 10
38.382222
 20
71.807675
 30
0.0
  0
LWPOLYLINE
  5
12d
100
AcDbEntity
  8
0
 62
7
100
AcDbPolyline
 90
9
 70
0
 10
19.191111
 20
72.672222
 30
0.0
 10
19.191111
 20
73.942222
 30
0.0
 10
20.320000
 20
73.942222
 30
0.0
 10
21.448889
 20
73.942222
 30
0.0
 10
21.448889
 20
72.672222
 30
0.0
 10
21.448889
 20
71.402222
 30
0.0
 10
20.320000
 20
71.402222
 30
0.0
 10
19.191111
 20
71.402222
 30
0.0
 10
19.191111
 20
72.672222
 30
0.0
  0
LWPOLYLINE
  5
12e
100
AcDbEntity
  8
0
 62
7
100
AcDbPolyline
 90
9
 70
0
 10
22.577778
 20
72.672222
 30
0.0
 10
22.577778
 20
73.942222
 30
0.0
 10
23.565556
 20
73.942222
 30
0.0
 10
24.553333
 20
73.942222
 30
0.0
 10
24.553333
 20
72.672222
 30
0.0
 10
24.553333
 20
71.402222
 30
0.0
 10
23.565556
 20
71.402222
 30
0.0
 10
22.577778
 20
71.402222
 30
0.0
 10
22.577778
 20
72.672222
 30
0.0
  0
LWPOLYLINE
  5
12f
100
AcDbEntity
  8
0
 62
7
100
AcDbPolyline
 90
9
 70
0
 10
56.162222
 20
74.365556
 30
0.0
 10
56.162222
 20
75.635556
 30
0.0
 10
57.150000
 20
75.635556
 30
0.0
 10
58.137778
 20
75.635556
 30
0.0
 10
58.137778
 20
74.365556
 30
0.0
 10
58.137778
 20
73.095556
 30
0.0
 10
57.150000
 20
73.095556
 30
0.0
 10
56.162222
 20
73.095556
 30
0.0
 10
56.162222
 20
74.365556
 30
0.0
  0
LWPOLYLINE
  5
130
100
AcDbEntity
  8
0
 62
7
100
AcDbPolyline
 90
9
 70
0
 10
59.266667
 20
74.348518
 30
0.0
 10
59.266667
 20
75.635556
 30
0.0
 10
60.411783
 20
75.635556
 30
0.0
 10
61.556900
 20
75.635556
 30
0.0
 10
61.470117
 20
74.436111
 30
0.0
 10
61.383333
 20
73.236667
 30
0.0
 10
60.325000
 20
73.149075
 30
0.0
 10
59.266667
 20
73.061483
 30
0.0
 10
59.266667
 20
74.348518
 30
0.0
  0
LWPOLYLINE
  5
131
100
AcDbEntity
  8
0
 62
7
100
AcDbPolyline
 90
9
 70
0
 10
8.184444
 20
76.905556
 30
0.0
 10
8.184444
 20
77.893333
 30
0.0
 10
9.172222
 20
77.893333
 30
0.0
 10
10.160000
 20
77.893333
 30
0.0
 10
10.160000
 20
76.905556
 30
0.0
 10
10.160000
 20
75.917778
 30
0.0
 10
9.172222
 20
75.917778
 30
0.0
 10
8.184444
 20
75.917778
 30
0.0
 10
8.184444
 20
76.905556
 30
0.0
  0
LWPOLYLINE
  5
132
100
AcDbEntity
  8
0
 62
7
100
AcDbPolyline
 90
9
 70
0
 10
34.148889
 20
76.905556
 30
0.0
 10
34.148889
 20
77.893333
 30
0.0
 10
35.136667
 20
77.893333
 30
0.0
 10
36.124444
 20
77.893333
 30
0.0
 10
36.124444
 20
76.905556
 30
0.0
 10
36.124444
 20
75.917778
 30
0.0
 10
35.136667
 20
75.917778
 30
0.0
 10
34.148889
 20
75.917778
 30
0.0
 10
34.148889
 20
76.905556
 30
0.0
  0
LWPOLYLINE
  5
133
100
AcDbEntity
  8
0
 62
7
100
AcDbPolyline
 90
9
 70
0
 10
42.615556
 20
76.905556
 30
0.0
 10
42.615556
 20
77.893333
 30
0.0
 10
43.603333
 20
77.893333
 30
0.0
 10
44.591111
 20
77.893333
 30
0.0
 10
44.591111
 20
76.905556
 30
0.0
 10
44.591111
 20
75.917778
 30
0.0
 10
43.603333
 20
75.917778
 30
0.0
 10
42.615556
 20
75.917778
 30
0.0
 10
42.615556
 20
76.905556
 30
0.0
  0
LWPOLYLINE
  5
134
100
AcDbEntity
  8
0
 62
7
100
AcDbPolyline
 90
9
 70
0
 10
68.015556
 20
76.905556
 30
0.0
 10
68.015556
 20
77.893333
 30
0.0
 10
69.003333
 20
77.893333
 30
0.0
 10
69.991111
 20
77.893333
 30
0.0
 10
69.991111
 20
76.905556
 30
0.0
 10
69.991111
 20
75.917778
 30
0.0
 10
69.003333
 20
75.917778
 30
0.0
 10
68.015556
 20
75.917778
 30
0.0
 10
68.015556
 20
76.905556
 30
0.0
  0
LWPOLYLINE
  5
135
100
AcDbEntity
  8
0
 62
7
100
AcDbPolyline
 90
9
 70
0
 10
8.184444
 20
80.292222
 30
0.0
 10
8.184444
 20
81.280000
 30
0.0
 10
9.172222
 20
81.280000
 30
0.0
 10
10.160000
 20
81.280000
 30
0.0
 10
10.160000
 20
80.292222
 30
0.0
 10
10.160000
 20
79.304444
 30
0.0
 10
9.172222
 20
79.304444
 30
0.0
 10
8.184444
 20
79.304444
 30
0.0
 10
8.184444
 20
80.292222
 30
0.0
  0
LWPOLYLINE
  5
136
100
AcDbEntity
  8
0
 62
7
100
AcDbPolyline
 90
9
 70
0
 10
34.148889
 20
80.274341
 30
0.0
 10
34.148889
 20
81.280000
 30
0.0
 10
35.154548
 20
81.280000
 30
0.0
 10
36.160208
 20
81.280000
 30
0.0
 10
36.071770
 20
80.362778
 30
0.0
 10
35.983333
 20
79.445556
 30
0.0
 10
35.066111
 20
79.357119
 30
0.0
 10
34.148889
 20
79.268682
 30
0.0
 10
34.148889
 20
80.274341
 30
0.0
  0
LWPOLYLINE
  5
137
100
AcDbEntity
  8
0
 62
7
100
AcDbPolyline
 90
9
 70
0
 10
42.615556
 20
80.274341
 30
0.0
 10
42.615556
 20
81.280000
 30
0.0
 10
43.621215
 20
81.280000
 30
0.0
 10
44.626874
 20
81.280000
 30
0.0
 10
44.538437
 20
80.362778
 30
0.0
 10
44.450000
 20
79.445556
 30
0.0
 10
43.532778
 20
79.357119
 30
0.0
 10
42.615556
 20
79.268682
 30
0.0
 10
42.615556
 20
80.274341
 30
0.0
  0
LWPOLYLINE
  5
138
100
AcDbEntity
  8
0
 62
7
100
AcDbPolyline
 90
9
 70
0
 10
68.015556
 20
80.274341
 30
0.0
 10
68.015556
 20
81.280000
 30
0.0
 10
69.021215
 20
81.280000
 30
0.0
 10
70.026874
 20
81.280000
 30
0.0
 10
69.938437
 20
80.362778
 30
0.0
 10
69.850000
 20
79.445556
 30
0.0
 10
68.932778
 20
79.357119
 30
0.0
 10
68.015556
 20
79.268682
 30
0.0
 10
68.015556
 20
80.274341
 30
0.0
  0
LWPOLYLINE
  5
139
100
AcDbEntity
  8
0
 62
7
100
AcDbPolyline
 90
9
 70
0
 10
27.657778
 20
81.138889
 30
0.0
 10
27.657778
 20
82.126667
 30
0.0
 10
28.645556
 20
82.126667
 30
0.0
 10
29.633333
 20
82.126667
 30
0.0
 10
29.633333
 20
81.138889
 30
0.0
 10
29.633333
 20
80.151111
 30
0.0
 10
28.645556
 20
80.151111
 30
0.0
 10
27.657778
 20
80.151111
 30
0.0
 10
27.657778
 20
81.138889
 30
0.0
  0
LWPOLYLINE
  5
13a
100
AcDbEntity
  8
0
 62
7
100
AcDbPolyline
 90
9
 70
0
 10
48.824444
 20
81.138889
 30
0.0
 10
48.824444
 20
82.126667
 30
0.0
 10
49.812222
 20
82.126667
 30
0.0
 10
50.800000
 20
82.126667
 30
0.0
 10
50.800000
 20
81.138889
 30
0.0
 10
50.800000
 20
80.151111
 30
0.0
 10
49.812222
 20
80.151111
 30
0.0
 10
48.824444
 20
80.151111
 30
0.0
 10
48.824444
 20
81.138889
 30
0.0
  0
LWPOLYLINE
  5
13b
100
AcDbEntity
  8
0
 62
7
100
AcDbPolyline
 90
10
 70
0
 10
14.221046
 20
82.529475
 30
0.0
 10
14.159348
 20
83.587808
 30
0.0
 10
14.252222
 20
84.243333
 30
0.0
 10
15.169444
 20
84.331770
 30
0.0
 10
16.086667
 20
84.420207
 30
0.0
 10
16.086667
 20
83.273437
 30
0.0
 10
16.086667
 20
82.126667
 30
0.0
 10
15.231142
 20
82.126667
 30
0.0
 10
14.375618
 20
82.126667
 30
0.0
 10
14.221046
 20
82.529475
 30
0.0
  0
LWPOLYLINE
  5
13c
100
AcDbEntity
  8
0
 62
7
100
AcDbPolyline
 90
10
 70
0
 10
61.634378
 20
82.529475
 30
0.0
 10
61.572682
 20
83.587808
 30
0.0
 10
61.665556
 20
84.243333
 30
0.0
 10
62.582778
 20
84.331770
 30
0.0
 10
63.500000
 20
84.420207
 30
0.0
 10
63.500000
 20
83.273437
 30
0.0
 10
63.500000
 20
82.126667
 30
0.0
 10
62.644477
 20
82.126667
 30
0.0
 10
61.788952
 20
82.126667
 30
0.0
 10
61.634378
 20
82.529475
 30
0.0
  0
LWPOLYLINE
  5
13d
100
AcDbEntity
  8
0
 62
7
100
AcDbPolyline
 90
9
 70
0
 10
27.657778
 20
84.525556
 30
0.0
 10
27.657778
 20
85.513333
 30
0.0
 10
28.645556
 20
85.513333
 30
0.0
 10
29.633333
 20
85.513333
 30
0.0
 10
29.633333
 20
84.525556
 30
0.0
 10
29.633333
 20
83.537778
 30
0.0
 10
28.645556
 20
83.537778
 30
0.0
 10
27.657778
 20
83.537778
 30
0.0
 10
27.657778
 20
84.525556
 30
0.0
  0
LWPOLYLINE
  5
13e
100
AcDbEntity
  8
0
 62
7
100
AcDbPolyline
 90
9
 70
0
 10
48.824444
 20
84.525556
 30
0.0
 10
48.824444
 20
85.513333
 30
0.0
 10
49.812222
 20
85.513333
 30
0.0
 10
50.800000
 20
85.513333
 30
0.0
 10
50.800000
 20
84.525556
 30
0.0
 10
50.800000
 20
83.537778
 30
0.0
 10
49.812222
 20
83.537778
 30
0.0
 10
48.824444
 20
83.537778
 30
0.0
 10
48.824444
 20
84.525556
 30
0.0
  0
LWPOLYLINE
  5
13f
100
AcDbEntity
  8
0
 62
7
100
AcDbPolyline
 90
9
 70
0
 10
14.111111
 20
86.783333
 30
0.0
 10
14.111111
 20
87.771111
 30
0.0
 10
15.098889
 20
87.771111
 30
0.0
 10
16.086667
 20
87.771111
 30
0.0
 10
16.086667
 20
86.783333
 30
0.0
 10
16.086667
 20
85.795556
 30
0.0
 10
15.098889
 20
85.795556
 30
0.0
 10
14.111111
 20
85.795556
 30
0.0
 10
14.111111
 20
86.783333
 30
0.0
  0
LWPOLYLINE
  5
140
100
AcDbEntity
  8
0
 62
7
100
AcDbPolyline
 90
9
 70
0
 10
61.524444
 20
86.783333
 30
0.0
 10
61.524444
 20
87.771111
 30
0.0
 10
62.512222
 20
87.771111
 30
0.0
 10
63.500000
 20
87.771111
 30
0.0
 10
63.500000
 20
86.783333
 30
0.0
 10
63.500000
 20
85.795556
 30
0.0
 10
62.512222
 20
85.795556
 30
0.0
 10
61.524444
 20
85.795556
 30
0.0
 10
61.524444
 20
86.783333
 30
0.0
  0
LWPOLYLINE
  5
141
100
AcDbEntity
  8
0
 62
7
100
AcDbPolyline
 90
10
 70
0
 10
20.147713
 20
86.762807
 30
0.0
 10
20.086015
 20
87.821141
 30
0.0
 10
20.178889
 20
88.476667
 30
0.0
 10
21.096111
 20
88.565103
 30
0.0
 10
22.013333
 20
88.653540
 30
0.0
 10
22.013333
 20
87.506770
 30
0.0
 10
22.013333
 20
86.360000
 30
0.0
 10
21.157809
 20
86.360000
 30
0.0
 10
20.302285
 20
86.360000
 30
0.0
 10
20.147713
 20
86.762807
 30
0.0
  0
LWPOLYLINE
  5
142
100
AcDbEntity
  8
0
 62
7
100
AcDbPolyline
 90
9
 70
0
 10
55.315556
 20
87.488889
 30
0.0
 10
55.315556
 20
88.653540
 30
0.0
 10
56.232778
 20
88.565103
 30
0.0
 10
57.150000
 20
88.476667
 30
0.0
 10
57.150000
 20
87.488889
 30
0.0
 10
57.150000
 20
86.501111
 30
0.0
 10
56.232778
 20
86.412675
 30
0.0
 10
55.315556
 20
86.324238
 30
0.0
 10
55.315556
 20
87.488889
 30
0.0
  0
LWPOLYLINE
  5
143
100
AcDbEntity
  8
0
 62
7
100
AcDbPolyline
 90
9
 70
0
 10
20.037778
 20
91.016667
 30
0.0
 10
20.037778
 20
92.004444
 30
0.0
 10
21.025556
 20
92.004444
 30
0.0
 10
22.013333
 20
92.004444
 30
0.0
 10
22.013333
 20
91.016667
 30
0.0
 10
22.013333
 20
90.028889
 30
0.0
 10
21.025556
 20
90.028889
 30
0.0
 10
20.037778
 20
90.028889
 30
0.0
 10
20.037778
 20
91.016667
 30
0.0
  0
LWPOLYLINE
  5
144
100
AcDbEntity
  8
0
 62
7
100
AcDbPolyline
 90
9
 70
0
 10
55.315556
 20
91.016667
 30
0.0
 10
55.315556
 20
92.004444
 30
0.0
 10
56.303333
 20
92.004444
 30
0.0
 10
57.291111
 20
92.004444
 30
0.0
 10
57.291111
 20
91.016667
 30
0.0
 10
57.291111
 20
90.028889
 30
0.0
 10
56.303333
 20
90.028889
 30
0.0
 10
55.315556
 20
90.028889
 30
0.0
 10
55.315556
 20
91.016667
 30
0.0
  0
ENDSEC
  0
SECTION
  2
OBJECTS
  0
DICTIONARY
  5
C
330
0
100
AcDbDictionary
  3
ACAD_GROUP
350
D
  3
ACAD_MLINESTYLE
350
17
  0
DICTIONARY
  5
D
330
C
100
AcDbDictionary
  0
DICTIONARY
  5
1A
330
C
100
AcDbDictionary
  0
DICTIONARY
  5
17
330
C
100
AcDbDictionary
  3
STANDARD
350
18
  0
DICTIONARY
  5
19
330
C
100
AcDbDictionary
  0
ENDSEC
  0
EOF
