999
DXF created by Inkscape
  0
SECTION
  2
HEADER
  9
$ACADVER
  1
AC1014
  9
$HANDSEED
  5
FFFF
  9
$MEASUREMENT
 70
     1
  0
ENDSEC
  0
SECTION
  2
TABLES
  0
TABLE
  2
VPORT
  5
8
330
0
100
AcDbSymbolTable
 70
     4
  0
VPORT
  5
2E
330
8
100
AcDbSymbolTableRecord
100
AcDbViewportTableRecord
  2
*ACTIVE
 70
     0
 10
0.0
 20
0.0
 11
1.0
 21
1.0
 12
210.0
 22
148.5
 13
0.0
 23
0.0
 14
10.0
 24
10.0
 15
10.0
 25
10.0
 16
0.0
 26
0.0
 36
1.0
 17
0.0
 27
0.0
 37
0.0
 40
341.0
 41
1.24
 42
50.0
 43
0.0
 44
0.0
 50
0.0
 51
0.0
 71
     0
 72
   100
 73
     1
 74
     3
 75
     0
 76
     0
 77
     0
 78
     0
  0
ENDTAB
  0
TABLE
  2
LTYPE
  5
5
330
0
100
AcDbSymbolTable
 70
     1
  0
LTYPE
  5
14
330
5
100
AcDbSymbolTableRecord
100
AcDbLinetypeTableRecord
  2
BYBLOCK
 70
     0
  3

 72
    65
 73
     0
 40
0.0
  0
LTYPE
  5
15
330
5
100
AcDbSymbolTableRecord
100
AcDbLinetypeTableRecord
  2
BYLAYER
 70
     0
  3

 72
    65
 73
     0
 40
0.0
  0
LTYPE
  5
16
330
5
100
AcDbSymbolTableRecord
100
AcDbLinetypeTableRecord
  2
CONTINUOUS
 70
     0
  3
Solid line
 72
    65
 73
     0
 40
0.0
  0
ENDTAB
  0
TABLE
  2
LAYER
  5
2
100
AcDbSymbolTable
 70
2
  0
LAYER
  5
50
100
AcDbSymbolTableRecord
100
AcDbLayerTableRecord
  2
0
 70
0
  6
CONTINUOUS
  0
LAYER
  5
51
100
AcDbSymbolTableRecord
100
AcDbLayerTableRecord
  2
Layer_1
 70
0
  6
CONTINUOUS
  0
ENDTAB
  0
TABLE
  2
STYLE
  5
3
330
0
100
AcDbSymbolTable
 70
     1
  0
STYLE
  5
11
330
3
100
AcDbSymbolTableRecord
100
AcDbTextStyleTableRecord
  2
STANDARD
 70
     0
 40
0.0
 41
1.0
 50
0.0
 71
     0
 42
2.5
  3
txt
  4

  0
ENDTAB
  0
TABLE
  2
VIEW
  5
6
330
0
100
AcDbSymbolTable
 70
     0
  0
ENDTAB
  0
TABLE
  2
UCS
  5
7
330
0
100
AcDbSymbolTable
 70
     0
  0
ENDTAB
  0
TABLE
  2
APPID
  5
9
330
0
100
AcDbSymbolTable
 70
     2
  0
APPID
  5
12
330
9
100
AcDbSymbolTableRecord
100
AcDbRegAppTableRecord
  2
ACAD
 70
     0
  0
ENDTAB
  0
TABLE
  2
DIMSTYLE
  5
A
330
0
100
AcDbSymbolTable
 70
     1
  0
DIMSTYLE
105
27
330
A
100
AcDbSymbolTableRecord
100
AcDbDimStyleTableRecord
  2
ISO-25
 70
     0
  3

  4

  5

  6

  7

 40
1.0
 41
2.5
 42
0.625
 43
3.75
 44
1.25
 45
0.0
 46
0.0
 47
0.0
 48
0.0
140
2.5
141
2.5
142
0.0
143
0.03937007874016
144
1.0
145
0.0
146
1.0
147
0.625
 71
     0
 72
     0
 73
     0
 74
     0
 75
     0
 76
     0
 77
     1
 78
     8
170
     0
171
     3
172
     1
173
     0
174
     0
175
     0
176
     0
177
     0
178
     0
270
     2
271
     2
272
     2
273
     2
274
     3
340
11
275
     0
280
     0
281
     0
282
     0
283
     0
284
     8
285
     0
286
     0
287
     3
288
     0
  0
ENDTAB
  0
TABLE
  2
BLOCK_RECORD
  5
1
330
0
100
AcDbSymbolTable
 70
     1
  0
BLOCK_RECORD
  5
1F
330
1
100
AcDbSymbolTableRecord
100
AcDbBlockTableRecord
  2
*MODEL_SPACE
  0
BLOCK_RECORD
  5
1B
330
1
100
AcDbSymbolTableRecord
100
AcDbBlockTableRecord
  2
*PAPER_SPACE
  0
ENDTAB
  0
ENDSEC
  0
SECTION
  2
BLOCKS
  0
BLOCK
  5
20
330
1F
100
AcDbEntity
  8
0
100
AcDbBlockBegin
  2
*MODEL_SPACE
 70
     0
 10
0.0
 20
0.0
 30
0.0
  3
*MODEL_SPACE
  1

  0
ENDBLK
  5
21
330
1F
100
AcDbEntity
  8
0
100
AcDbBlockEnd
  0
BLOCK
  5
1C
330
1B
100
AcDbEntity
 67
     1
  8
0
100
AcDbBlockBegin
  2
*PAPER_SPACE
  1

  0
ENDBLK
  5
1D
330
1B
100
AcDbEntity
 67
     1
  8
0
100
AcDbBlockEnd
  0
ENDSEC
  0
SECTION
  2
ENTITIES
  0
LWPOLYLINE
  5
100
100
AcDbEntity
  8
Layer_1
 62
7
100
AcDbPolyline
 90
5
 70
0
 10
22.098000
 20
42.670239
 30
0.0
 10
23.298150
 20
42.670239
 30
0.0
 10
23.298150
 20
41.470089
 30
0.0
 10
22.098000
 20
41.470089
 30
0.0
 10
22.098000
 20
42.670239
 30
0.0
  0
LWPOLYLINE
  5
101
100
AcDbEntity
  8
Layer_1
 62
7
100
AcDbPolyline
 90
5
 70
0
 10
22.098000
 20
40.570153
 30
0.0
 10
23.298150
 20
40.570153
 30
0.0
 10
23.298150
 20
39.370003
 30
0.0
 10
22.098000
 20
39.370003
 30
0.0
 10
22.098000
 20
40.570153
 30
0.0
  0
LWPOLYLINE
  5
102
100
AcDbEntity
  8
Layer_1
 62
7
100
AcDbPolyline
 90
5
 70
0
 10
25.908000
 20
45.210239
 30
0.0
 10
27.108150
 20
45.210239
 30
0.0
 10
27.108150
 20
44.010089
 30
0.0
 10
25.908000
 20
44.010089
 30
0.0
 10
25.908000
 20
45.210239
 30
0.0
  0
LWPOLYLINE
  5
103
100
AcDbEntity
  8
Layer_1
 62
7
100
AcDbPolyline
 90
5
 70
0
 10
25.908000
 20
43.110153
 30
0.0
 10
27.108150
 20
43.110153
 30
0.0
 10
27.108150
 20
41.910003
 30
0.0
 10
25.908000
 20
41.910003
 30
0.0
 10
25.908000
 20
43.110153
 30
0.0
  0
LWPOLYLINE
  5
104
100
AcDbEntity
  8
Layer_1
 62
7
100
AcDbPolyline
 90
5
 70
0
 10
29.718000
 20
49.020239
 30
0.0
 10
30.918150
 20
49.020239
 30
0.0
 10
30.918150
 20
47.820089
 30
0.0
 10
29.718000
 20
47.820089
 30
0.0
 10
29.718000
 20
49.020239
 30
0.0
  0
LWPOLYLINE
  5
105
100
AcDbEntity
  8
Layer_1
 62
7
100
AcDbPolyline
 90
5
 70
0
 10
29.718000
 20
46.920153
 30
0.0
 10
30.918150
 20
46.920153
 30
0.0
 10
30.918150
 20
45.720003
 30
0.0
 10
29.718000
 20
45.720003
 30
0.0
 10
29.718000
 20
46.920153
 30
0.0
  0
LWPOLYLINE
  5
106
100
AcDbEntity
  8
Layer_1
 62
7
100
AcDbPolyline
 90
5
 70
0
 10
33.528000
 20
46.480239
 30
0.0
 10
34.728150
 20
46.480239
 30
0.0
 10
34.728150
 20
45.280089
 30
0.0
 10
33.528000
 20
45.280089
 30
0.0
 10
33.528000
 20
46.480239
 30
0.0
  0
LWPOLYLINE
  5
107
100
AcDbEntity
  8
Layer_1
 62
7
100
AcDbPolyline
 90
5
 70
0
 10
33.528000
 20
44.380153
 30
0.0
 10
34.728150
 20
44.380153
 30
0.0
 10
34.728150
 20
43.180003
 30
0.0
 10
33.528000
 20
43.180003
 30
0.0
 10
33.528000
 20
44.380153
 30
0.0
  0
LWPOLYLINE
  5
108
100
AcDbEntity
  8
Layer_1
 62
7
100
AcDbPolyline
 90
5
 70
0
 10
37.338000
 20
42.670239
 30
0.0
 10
38.538150
 20
42.670239
 30
0.0
 10
38.538150
 20
41.470089
 30
0.0
 10
37.338000
 20
41.470089
 30
0.0
 10
37.338000
 20
42.670239
 30
0.0
  0
LWPOLYLINE
  5
109
100
AcDbEntity
  8
Layer_1
 62
7
100
AcDbPolyline
 90
5
 70
0
 10
37.338000
 20
40.570153
 30
0.0
 10
38.538150
 20
40.570153
 30
0.0
 10
38.538150
 20
39.370003
 30
0.0
 10
37.338000
 20
39.370003
 30
0.0
 10
37.338000
 20
40.570153
 30
0.0
  0
LWPOLYLINE
  5
10a
100
AcDbEntity
  8
Layer_1
 62
7
100
AcDbPolyline
 90
5
 70
0
 10
39.878000
 20
35.050239
 30
0.0
 10
41.078150
 20
35.050239
 30
0.0
 10
41.078150
 20
33.850089
 30
0.0
 10
39.878000
 20
33.850089
 30
0.0
 10
39.878000
 20
35.050239
 30
0.0
  0
LWPOLYLINE
  5
10b
100
AcDbEntity
  8
Layer_1
 62
7
100
AcDbPolyline
 90
5
 70
0
 10
39.878000
 20
32.950153
 30
0.0
 10
41.078150
 20
32.950153
 30
0.0
 10
41.078150
 20
31.750003
 30
0.0
 10
39.878000
 20
31.750003
 30
0.0
 10
39.878000
 20
32.950153
 30
0.0
  0
LWPOLYLINE
  5
10c
100
AcDbEntity
  8
Layer_1
 62
7
100
AcDbPolyline
 90
5
 70
0
 10
38.354000
 20
26.160239
 30
0.0
 10
39.554150
 20
26.160239
 30
0.0
 10
39.554150
 20
24.960089
 30
0.0
 10
38.354000
 20
24.960089
 30
0.0
 10
38.354000
 20
26.160239
 30
0.0
  0
LWPOLYLINE
  5
10d
100
AcDbEntity
  8
Layer_1
 62
7
100
AcDbPolyline
 90
5
 70
0
 10
38.354000
 20
24.060153
 30
0.0
 10
39.554150
 20
24.060153
 30
0.0
 10
39.554150
 20
22.860003
 30
0.0
 10
38.354000
 20
22.860003
 30
0.0
 10
38.354000
 20
24.060153
 30
0.0
  0
LWPOLYLINE
  5
10e
100
AcDbEntity
  8
Layer_1
 62
7
100
AcDbPolyline
 90
5
 70
0
 10
32.258000
 20
18.540239
 30
0.0
 10
33.458150
 20
18.540239
 30
0.0
 10
33.458150
 20
17.340089
 30
0.0
 10
32.258000
 20
17.340089
 30
0.0
 10
32.258000
 20
18.540239
 30
0.0
  0
LWPOLYLINE
  5
10f
100
AcDbEntity
  8
Layer_1
 62
7
100
AcDbPolyline
 90
5
 70
0
 10
32.258000
 20
16.440153
 30
0.0
 10
33.458150
 20
16.440153
 30
0.0
 10
33.458150
 20
15.240003
 30
0.0
 10
32.258000
 20
15.240003
 30
0.0
 10
32.258000
 20
16.440153
 30
0.0
  0
LWPOLYLINE
  5
110
100
AcDbEntity
  8
Layer_1
 62
7
100
AcDbPolyline
 90
5
 70
0
 10
27.178000
 20
10.920239
 30
0.0
 10
28.378150
 20
10.920239
 30
0.0
 10
28.378150
 20
9.720089
 30
0.0
 10
27.178000
 20
9.720089
 30
0.0
 10
27.178000
 20
10.920239
 30
0.0
  0
LWPOLYLINE
  5
111
100
AcDbEntity
  8
Layer_1
 62
7
100
AcDbPolyline
 90
5
 70
0
 10
27.178000
 20
8.820153
 30
0.0
 10
28.378150
 20
8.820153
 30
0.0
 10
28.378150
 20
7.620003
 30
0.0
 10
27.178000
 20
7.620003
 30
0.0
 10
27.178000
 20
8.820153
 30
0.0
  0
LWPOLYLINE
  5
112
100
AcDbEntity
  8
Layer_1
 62
7
100
AcDbPolyline
 90
5
 70
0
 10
19.558000
 20
3.300239
 30
0.0
 10
20.758150
 20
3.300239
 30
0.0
 10
20.758150
 20
2.100089
 30
0.0
 10
19.558000
 20
2.100089
 30
0.0
 10
19.558000
 20
3.300239
 30
0.0
  0
LWPOLYLINE
  5
113
100
AcDbEntity
  8
Layer_1
 62
7
100
AcDbPolyline
 90
5
 70
0
 10
19.558000
 20
1.200153
 30
0.0
 10
20.758150
 20
1.200153
 30
0.0
 10
20.758150
 20
0.000003
 30
0.0
 10
19.558000
 20
0.000003
 30
0.0
 10
19.558000
 20
1.200153
 30
0.0
  0
LWPOLYLINE
  5
114
100
AcDbEntity
  8
Layer_1
 62
7
100
AcDbPolyline
 90
5
 70
0
 10
11.938000
 20
10.920239
 30
0.0
 10
13.138150
 20
10.920239
 30
0.0
 10
13.138150
 20
9.720089
 30
0.0
 10
11.938000
 20
9.720089
 30
0.0
 10
11.938000
 20
10.920239
 30
0.0
  0
LWPOLYLINE
  5
115
100
AcDbEntity
  8
Layer_1
 62
7
100
AcDbPolyline
 90
5
 70
0
 10
11.938000
 20
8.820153
 30
0.0
 10
13.138150
 20
8.820153
 30
0.0
 10
13.138150
 20
7.620003
 30
0.0
 10
11.938000
 20
7.620003
 30
0.0
 10
11.938000
 20
8.820153
 30
0.0
  0
LWPOLYLINE
  5
116
100
AcDbEntity
  8
Layer_1
 62
7
100
AcDbPolyline
 90
5
 70
0
 10
6.858000
 20
18.540239
 30
0.0
 10
8.058150
 20
18.540239
 30
0.0
 10
8.058150
 20
17.340089
 30
0.0
 10
6.858000
 20
17.340089
 30
0.0
 10
6.858000
 20
18.540239
 30
0.0
  0
LWPOLYLINE
  5
117
100
AcDbEntity
  8
Layer_1
 62
7
100
AcDbPolyline
 90
5
 70
0
 10
6.858000
 20
16.440153
 30
0.0
 10
8.058150
 20
16.440153
 30
0.0
 10
8.058150
 20
15.240003
 30
0.0
 10
6.858000
 20
15.240003
 30
0.0
 10
6.858000
 20
16.440153
 30
0.0
  0
LWPOLYLINE
  5
118
100
AcDbEntity
  8
Layer_1
 62
7
100
AcDbPolyline
 90
5
 70
0
 10
2.032000
 20
26.160239
 30
0.0
 10
3.232150
 20
26.160239
 30
0.0
 10
3.232150
 20
24.960089
 30
0.0
 10
2.032000
 20
24.960089
 30
0.0
 10
2.032000
 20
26.160239
 30
0.0
  0
LWPOLYLINE
  5
119
100
AcDbEntity
  8
Layer_1
 62
7
100
AcDbPolyline
 90
5
 70
0
 10
2.032000
 20
24.060153
 30
0.0
 10
3.232150
 20
24.060153
 30
0.0
 10
3.232150
 20
22.860003
 30
0.0
 10
2.032000
 20
22.860003
 30
0.0
 10
2.032000
 20
24.060153
 30
0.0
  0
LWPOLYLINE
  5
11a
100
AcDbEntity
  8
Layer_1
 62
7
100
AcDbPolyline
 90
5
 70
0
 10
0.000000
 20
35.304239
 30
0.0
 10
1.200150
 20
35.304239
 30
0.0
 10
1.200150
 20
34.104089
 30
0.0
 10
0.000000
 20
34.104089
 30
0.0
 10
0.000000
 20
35.304239
 30
0.0
  0
LWPOLYLINE
  5
11b
100
AcDbEntity
  8
Layer_1
 62
7
100
AcDbPolyline
 90
5
 70
0
 10
0.000000
 20
33.204153
 30
0.0
 10
1.200150
 20
33.204153
 30
0.0
 10
1.200150
 20
32.004003
 30
0.0
 10
0.000000
 20
32.004003
 30
0.0
 10
0.000000
 20
33.204153
 30
0.0
  0
LWPOLYLINE
  5
11c
100
AcDbEntity
  8
Layer_1
 62
7
100
AcDbPolyline
 90
5
 70
0
 10
1.524000
 20
42.670239
 30
0.0
 10
2.724150
 20
42.670239
 30
0.0
 10
2.724150
 20
41.470089
 30
0.0
 10
1.524000
 20
41.470089
 30
0.0
 10
1.524000
 20
42.670239
 30
0.0
  0
LWPOLYLINE
  5
11d
100
AcDbEntity
  8
Layer_1
 62
7
100
AcDbPolyline
 90
5
 70
0
 10
1.524000
 20
40.570153
 30
0.0
 10
2.724150
 20
40.570153
 30
0.0
 10
2.724150
 20
39.370003
 30
0.0
 10
1.524000
 20
39.370003
 30
0.0
 10
1.524000
 20
40.570153
 30
0.0
  0
LWPOLYLINE
  5
11e
100
AcDbEntity
  8
Layer_1
 62
7
100
AcDbPolyline
 90
5
 70
0
 10
5.080000
 20
46.480239
 30
0.0
 10
6.280150
 20
46.480239
 30
0.0
 10
6.280150
 20
45.280089
 30
0.0
 10
5.080000
 20
45.280089
 30
0.0
 10
5.080000
 20
46.480239
 30
0.0
  0
LWPOLYLINE
  5
11f
100
AcDbEntity
  8
Layer_1
 62
7
100
AcDbPolyline
 90
5
 70
0
 10
5.080000
 20
44.380153
 30
0.0
 10
6.280150
 20
44.380153
 30
0.0
 10
6.280150
 20
43.180003
 30
0.0
 10
5.080000
 20
43.180003
 30
0.0
 10
5.080000
 20
44.380153
 30
0.0
  0
LWPOLYLINE
  5
120
100
AcDbEntity
  8
Layer_1
 62
7
100
AcDbPolyline
 90
5
 70
0
 10
8.636000
 20
49.020239
 30
0.0
 10
9.836150
 20
49.020239
 30
0.0
 10
9.836150
 20
47.820089
 30
0.0
 10
8.636000
 20
47.820089
 30
0.0
 10
8.636000
 20
49.020239
 30
0.0
  0
LWPOLYLINE
  5
121
100
AcDbEntity
  8
Layer_1
 62
7
100
AcDbPolyline
 90
5
 70
0
 10
8.636000
 20
46.920153
 30
0.0
 10
9.836150
 20
46.920153
 30
0.0
 10
9.836150
 20
45.720003
 30
0.0
 10
8.636000
 20
45.720003
 30
0.0
 10
8.636000
 20
46.920153
 30
0.0
  0
LWPOLYLINE
  5
122
100
AcDbEntity
  8
Layer_1
 62
7
100
AcDbPolyline
 90
5
 70
0
 10
13.208000
 20
45.210239
 30
0.0
 10
14.408150
 20
45.210239
 30
0.0
 10
14.408150
 20
44.010089
 30
0.0
 10
13.208000
 20
44.010089
 30
0.0
 10
13.208000
 20
45.210239
 30
0.0
  0
LWPOLYLINE
  5
123
100
AcDbEntity
  8
Layer_1
 62
7
100
AcDbPolyline
 90
5
 70
0
 10
13.208000
 20
43.110153
 30
0.0
 10
14.408150
 20
43.110153
 30
0.0
 10
14.408150
 20
41.910003
 30
0.0
 10
13.208000
 20
41.910003
 30
0.0
 10
13.208000
 20
43.110153
 30
0.0
  0
LWPOLYLINE
  5
124
100
AcDbEntity
  8
Layer_1
 62
7
100
AcDbPolyline
 90
5
 70
0
 10
17.018000
 20
42.670239
 30
0.0
 10
18.218150
 20
42.670239
 30
0.0
 10
18.218150
 20
41.470089
 30
0.0
 10
17.018000
 20
41.470089
 30
0.0
 10
17.018000
 20
42.670239
 30
0.0
  0
LWPOLYLINE
  5
125
100
AcDbEntity
  8
Layer_1
 62
7
100
AcDbPolyline
 90
5
 70
0
 10
17.018000
 20
40.570153
 30
0.0
 10
18.218150
 20
40.570153
 30
0.0
 10
18.218150
 20
39.370003
 30
0.0
 10
17.018000
 20
39.370003
 30
0.0
 10
17.018000
 20
40.570153
 30
0.0
  0
LWPOLYLINE
  5
126
100
AcDbEntity
  8
Layer_1
 62
7
100
AcDbPolyline
 90
5
 70
0
 10
19.558000
 20
37.590239
 30
0.0
 10
20.758150
 20
37.590239
 30
0.0
 10
20.758150
 20
36.390089
 30
0.0
 10
19.558000
 20
36.390089
 30
0.0
 10
19.558000
 20
37.590239
 30
0.0
  0
LWPOLYLINE
  5
127
100
AcDbEntity
  8
Layer_1
 62
7
100
AcDbPolyline
 90
5
 70
0
 10
19.558000
 20
35.490153
 30
0.0
 10
20.758150
 20
35.490153
 30
0.0
 10
20.758150
 20
34.290003
 30
0.0
 10
19.558000
 20
34.290003
 30
0.0
 10
19.558000
 20
35.490153
 30
0.0
  0
LWPOLYLINE
  5
128
100
AcDbEntity
  8
Layer_1
 62
7
100
AcDbPolyline
 90
5
 70
0
 10
17.948275
 20
15.886997
 30
0.0
 10
18.557875
 20
15.886997
 30
0.0
 10
18.557875
 20
13.677197
 30
0.0
 10
17.948275
 20
13.677197
 30
0.0
 10
17.948275
 20
15.886997
 30
0.0
  0
LWPOLYLINE
  5
129
100
AcDbEntity
  8
Layer_1
 62
7
100
AcDbPolyline
 90
5
 70
0
 10
19.218275
 20
15.886997
 30
0.0
 10
19.827875
 20
15.886997
 30
0.0
 10
19.827875
 20
13.677197
 30
0.0
 10
19.218275
 20
13.677197
 30
0.0
 10
19.218275
 20
15.886997
 30
0.0
  0
LWPOLYLINE
  5
12a
100
AcDbEntity
  8
Layer_1
 62
7
100
AcDbPolyline
 90
5
 70
0
 10
20.488275
 20
15.886997
 30
0.0
 10
21.097875
 20
15.886997
 30
0.0
 10
21.097875
 20
13.677197
 30
0.0
 10
20.488275
 20
13.677197
 30
0.0
 10
20.488275
 20
15.886997
 30
0.0
  0
LWPOLYLINE
  5
12b
100
AcDbEntity
  8
Layer_1
 62
7
100
AcDbPolyline
 90
5
 70
0
 10
21.758275
 20
15.886997
 30
0.0
 10
22.367875
 20
15.886997
 30
0.0
 10
22.367875
 20
13.677197
 30
0.0
 10
21.758275
 20
13.677197
 30
0.0
 10
21.758275
 20
15.886997
 30
0.0
  0
LWPOLYLINE
  5
12c
100
AcDbEntity
  8
Layer_1
 62
7
100
AcDbPolyline
 90
5
 70
0
 10
21.758275
 20
22.617997
 30
0.0
 10
22.367875
 20
22.617997
 30
0.0
 10
22.367875
 20
20.408197
 30
0.0
 10
21.758275
 20
20.408197
 30
0.0
 10
21.758275
 20
22.617997
 30
0.0
  0
LWPOLYLINE
  5
12d
100
AcDbEntity
  8
Layer_1
 62
7
100
AcDbPolyline
 90
5
 70
0
 10
20.488275
 20
22.617997
 30
0.0
 10
21.097875
 20
22.617997
 30
0.0
 10
21.097875
 20
20.408197
 30
0.0
 10
20.488275
 20
20.408197
 30
0.0
 10
20.488275
 20
22.617997
 30
0.0
  0
LWPOLYLINE
  5
12e
100
AcDbEntity
  8
Layer_1
 62
7
100
AcDbPolyline
 90
5
 70
0
 10
19.218275
 20
22.617997
 30
0.0
 10
19.827875
 20
22.617997
 30
0.0
 10
19.827875
 20
20.408197
 30
0.0
 10
19.218275
 20
20.408197
 30
0.0
 10
19.218275
 20
22.617997
 30
0.0
  0
LWPOLYLINE
  5
12f
100
AcDbEntity
  8
Layer_1
 62
7
100
AcDbPolyline
 90
5
 70
0
 10
17.948275
 20
22.617997
 30
0.0
 10
18.557875
 20
22.617997
 30
0.0
 10
18.557875
 20
20.408197
 30
0.0
 10
17.948275
 20
20.408197
 30
0.0
 10
17.948275
 20
22.617997
 30
0.0
  0
LWPOLYLINE
  5
130
100
AcDbEntity
  8
Layer_1
 62
7
100
AcDbPolyline
 90
5
 70
0
 10
8.144228
 20
38.214303
 30
0.0
 10
9.444214
 20
38.214303
 30
0.0
 10
9.444214
 20
36.714292
 30
0.0
 10
8.144228
 20
36.714292
 30
0.0
 10
8.144228
 20
38.214303
 30
0.0
  0
LWPOLYLINE
  5
131
100
AcDbEntity
  8
Layer_1
 62
7
100
AcDbPolyline
 90
5
 70
0
 10
10.043936
 20
38.214303
 30
0.0
 10
11.343922
 20
38.214303
 30
0.0
 10
11.343922
 20
36.714292
 30
0.0
 10
10.043936
 20
36.714292
 30
0.0
 10
10.043936
 20
38.214303
 30
0.0
  0
LWPOLYLINE
  5
132
100
AcDbEntity
  8
Layer_1
 62
7
100
AcDbPolyline
 90
5
 70
0
 10
13.224228
 20
35.674303
 30
0.0
 10
14.524214
 20
35.674303
 30
0.0
 10
14.524214
 20
34.174292
 30
0.0
 10
13.224228
 20
34.174292
 30
0.0
 10
13.224228
 20
35.674303
 30
0.0
  0
LWPOLYLINE
  5
133
100
AcDbEntity
  8
Layer_1
 62
7
100
AcDbPolyline
 90
5
 70
0
 10
15.123936
 20
35.674303
 30
0.0
 10
16.423922
 20
35.674303
 30
0.0
 10
16.423922
 20
34.174292
 30
0.0
 10
15.123936
 20
34.174292
 30
0.0
 10
15.123936
 20
35.674303
 30
0.0
  0
LWPOLYLINE
  5
134
100
AcDbEntity
  8
Layer_1
 62
7
100
AcDbPolyline
 90
5
 70
0
 10
18.304228
 20
32.626303
 30
0.0
 10
19.604214
 20
32.626303
 30
0.0
 10
19.604214
 20
31.126292
 30
0.0
 10
18.304228
 20
31.126292
 30
0.0
 10
18.304228
 20
32.626303
 30
0.0
  0
LWPOLYLINE
  5
135
100
AcDbEntity
  8
Layer_1
 62
7
100
AcDbPolyline
 90
5
 70
0
 10
20.203936
 20
32.626303
 30
0.0
 10
21.503922
 20
32.626303
 30
0.0
 10
21.503922
 20
31.126292
 30
0.0
 10
20.203936
 20
31.126292
 30
0.0
 10
20.203936
 20
32.626303
 30
0.0
  0
LWPOLYLINE
  5
136
100
AcDbEntity
  8
Layer_1
 62
7
100
AcDbPolyline
 90
5
 70
0
 10
24.400228
 20
35.420303
 30
0.0
 10
25.700214
 20
35.420303
 30
0.0
 10
25.700214
 20
33.920292
 30
0.0
 10
24.400228
 20
33.920292
 30
0.0
 10
24.400228
 20
35.420303
 30
0.0
  0
LWPOLYLINE
  5
137
100
AcDbEntity
  8
Layer_1
 62
7
100
AcDbPolyline
 90
5
 70
0
 10
26.299936
 20
35.420303
 30
0.0
 10
27.599922
 20
35.420303
 30
0.0
 10
27.599922
 20
33.920292
 30
0.0
 10
26.299936
 20
33.920292
 30
0.0
 10
26.299936
 20
35.420303
 30
0.0
  0
LWPOLYLINE
  5
138
100
AcDbEntity
  8
Layer_1
 62
7
100
AcDbPolyline
 90
5
 70
0
 10
30.242228
 20
39.230303
 30
0.0
 10
31.542214
 20
39.230303
 30
0.0
 10
31.542214
 20
37.730292
 30
0.0
 10
30.242228
 20
37.730292
 30
0.0
 10
30.242228
 20
39.230303
 30
0.0
  0
LWPOLYLINE
  5
139
100
AcDbEntity
  8
Layer_1
 62
7
100
AcDbPolyline
 90
5
 70
0
 10
32.141936
 20
39.230303
 30
0.0
 10
33.441922
 20
39.230303
 30
0.0
 10
33.441922
 20
37.730292
 30
0.0
 10
32.141936
 20
37.730292
 30
0.0
 10
32.141936
 20
39.230303
 30
0.0
  0
LWPOLYLINE
  5
13a
100
AcDbEntity
  8
Layer_1
 62
7
100
AcDbPolyline
 90
5
 70
0
 10
15.194139
 20
20.106219
 30
0.0
 10
16.994011
 20
20.106219
 30
0.0
 10
16.994011
 20
18.506372
 30
0.0
 10
15.194139
 20
18.506372
 30
0.0
 10
15.194139
 20
20.106219
 30
0.0
  0
LWPOLYLINE
  5
13b
100
AcDbEntity
  8
Layer_1
 62
7
100
AcDbPolyline
 90
5
 70
0
 10
15.194139
 20
17.306222
 30
0.0
 10
16.994011
 20
17.306222
 30
0.0
 10
16.994011
 20
15.706375
 30
0.0
 10
15.194139
 20
15.706375
 30
0.0
 10
15.194139
 20
17.306222
 30
0.0
  0
LWPOLYLINE
  5
13c
100
AcDbEntity
  8
Layer_1
 62
7
100
AcDbPolyline
 90
5
 70
0
 10
26.654125
 20
18.914183
 30
0.0
 10
28.054300
 20
18.914183
 30
0.0
 10
28.054300
 20
17.914058
 30
0.0
 10
26.654125
 20
17.914058
 30
0.0
 10
26.654125
 20
18.914183
 30
0.0
  0
LWPOLYLINE
  5
13d
100
AcDbEntity
  8
Layer_1
 62
7
100
AcDbPolyline
 90
5
 70
0
 10
24.454203
 20
17.964153
 30
0.0
 10
25.854378
 20
17.964153
 30
0.0
 10
25.854378
 20
16.964028
 30
0.0
 10
24.454203
 20
16.964028
 30
0.0
 10
24.454203
 20
17.964153
 30
0.0
  0
LWPOLYLINE
  5
13e
100
AcDbEntity
  8
Layer_1
 62
7
100
AcDbPolyline
 90
5
 70
0
 10
24.454203
 20
19.864214
 30
0.0
 10
25.854378
 20
19.864214
 30
0.0
 10
25.854378
 20
18.864089
 30
0.0
 10
24.454203
 20
18.864089
 30
0.0
 10
24.454203
 20
19.864214
 30
0.0
  0
LWPOLYLINE
  5
13f
100
AcDbEntity
  8
Layer_1
 62
7
100
AcDbPolyline
 90
5
 70
0
 10
16.602075
 20
29.082297
 30
0.0
 10
18.126075
 20
29.082297
 30
0.0
 10
18.126075
 20
28.320297
 30
0.0
 10
16.602075
 20
28.320297
 30
0.0
 10
16.602075
 20
29.082297
 30
0.0
  0
LWPOLYLINE
  5
140
100
AcDbEntity
  8
Layer_1
 62
7
100
AcDbPolyline
 90
5
 70
0
 10
21.682075
 20
29.082297
 30
0.0
 10
23.206075
 20
29.082297
 30
0.0
 10
23.206075
 20
28.320297
 30
0.0
 10
21.682075
 20
28.320297
 30
0.0
 10
21.682075
 20
29.082297
 30
0.0
  0
LWPOLYLINE
  5
141
100
AcDbEntity
  8
Layer_1
 62
7
100
AcDbPolyline
 90
5
 70
0
 10
16.602075
 20
25.272297
 30
0.0
 10
18.126075
 20
25.272297
 30
0.0
 10
18.126075
 20
24.510297
 30
0.0
 10
16.602075
 20
24.510297
 30
0.0
 10
16.602075
 20
25.272297
 30
0.0
  0
LWPOLYLINE
  5
142
100
AcDbEntity
  8
Layer_1
 62
7
100
AcDbPolyline
 90
5
 70
0
 10
21.682075
 20
25.272297
 30
0.0
 10
23.206075
 20
25.272297
 30
0.0
 10
23.206075
 20
24.510297
 30
0.0
 10
21.682075
 20
24.510297
 30
0.0
 10
21.682075
 20
25.272297
 30
0.0
  0
LWPOLYLINE
  5
143
100
AcDbEntity
  8
Layer_1
 62
7
100
AcDbPolyline
 90
5
 70
0
 10
25.250069
 20
24.586144
 30
0.0
 10
26.750081
 20
24.586144
 30
0.0
 10
26.750081
 20
23.286158
 30
0.0
 10
25.250069
 20
23.286158
 30
0.0
 10
25.250069
 20
24.586144
 30
0.0
  0
LWPOLYLINE
  5
144
100
AcDbEntity
  8
Layer_1
 62
7
100
AcDbPolyline
 90
5
 70
0
 10
25.250069
 20
22.686436
 30
0.0
 10
26.750081
 20
22.686436
 30
0.0
 10
26.750081
 20
21.386450
 30
0.0
 10
25.250069
 20
21.386450
 30
0.0
 10
25.250069
 20
22.686436
 30
0.0
  0
ENDSEC
  0
SECTION
  2
OBJECTS
  0
DICTIONARY
  5
C
330
0
100
AcDbDictionary
  3
ACAD_GROUP
350
D
  3
ACAD_MLINESTYLE
350
17
  0
DICTIONARY
  5
D
330
C
100
AcDbDictionary
  0
DICTIONARY
  5
1A
330
C
100
AcDbDictionary
  0
DICTIONARY
  5
17
330
C
100
AcDbDictionary
  3
STANDARD
350
18
  0
DICTIONARY
  5
19
330
C
100
AcDbDictionary
  0
ENDSEC
  0
EOF
