999
DXF created by Inkscape
  0
SECTION
  2
HEADER
  9
$ACADVER
  1
AC1014
  9
$HANDSEED
  5
FFFF
  9
$MEASUREMENT
 70
     1
  0
ENDSEC
  0
SECTION
  2
TABLES
  0
TABLE
  2
VPORT
  5
8
330
0
100
AcDbSymbolTable
 70
     4
  0
VPORT
  5
2E
330
8
100
AcDbSymbolTableRecord
100
AcDbViewportTableRecord
  2
*ACTIVE
 70
     0
 10
0.0
 20
0.0
 11
1.0
 21
1.0
 12
210.0
 22
148.5
 13
0.0
 23
0.0
 14
10.0
 24
10.0
 15
10.0
 25
10.0
 16
0.0
 26
0.0
 36
1.0
 17
0.0
 27
0.0
 37
0.0
 40
341.0
 41
1.24
 42
50.0
 43
0.0
 44
0.0
 50
0.0
 51
0.0
 71
     0
 72
   100
 73
     1
 74
     3
 75
     0
 76
     0
 77
     0
 78
     0
  0
ENDTAB
  0
TABLE
  2
LTYPE
  5
5
330
0
100
AcDbSymbolTable
 70
     1
  0
LTYPE
  5
14
330
5
100
AcDbSymbolTableRecord
100
AcDbLinetypeTableRecord
  2
BYBLOCK
 70
     0
  3

 72
    65
 73
     0
 40
0.0
  0
LTYPE
  5
15
330
5
100
AcDbSymbolTableRecord
100
AcDbLinetypeTableRecord
  2
BYLAYER
 70
     0
  3

 72
    65
 73
     0
 40
0.0
  0
LTYPE
  5
16
330
5
100
AcDbSymbolTableRecord
100
AcDbLinetypeTableRecord
  2
CONTINUOUS
 70
     0
  3
Solid line
 72
    65
 73
     0
 40
0.0
  0
ENDTAB
  0
TABLE
  2
LAYER
  5
2
100
AcDbSymbolTable
 70
1
  0
LAYER
  5
50
100
AcDbSymbolTableRecord
100
AcDbLayerTableRecord
  2
0
 70
0
  6
CONTINUOUS
  0
ENDTAB
  0
TABLE
  2
STYLE
  5
3
330
0
100
AcDbSymbolTable
 70
     1
  0
STYLE
  5
11
330
3
100
AcDbSymbolTableRecord
100
AcDbTextStyleTableRecord
  2
STANDARD
 70
     0
 40
0.0
 41
1.0
 50
0.0
 71
     0
 42
2.5
  3
txt
  4

  0
ENDTAB
  0
TABLE
  2
VIEW
  5
6
330
0
100
AcDbSymbolTable
 70
     0
  0
ENDTAB
  0
TABLE
  2
UCS
  5
7
330
0
100
AcDbSymbolTable
 70
     0
  0
ENDTAB
  0
TABLE
  2
APPID
  5
9
330
0
100
AcDbSymbolTable
 70
     2
  0
APPID
  5
12
330
9
100
AcDbSymbolTableRecord
100
AcDbRegAppTableRecord
  2
ACAD
 70
     0
  0
ENDTAB
  0
TABLE
  2
DIMSTYLE
  5
A
330
0
100
AcDbSymbolTable
 70
     1
  0
DIMSTYLE
105
27
330
A
100
AcDbSymbolTableRecord
100
AcDbDimStyleTableRecord
  2
ISO-25
 70
     0
  3

  4

  5

  6

  7

 40
1.0
 41
2.5
 42
0.625
 43
3.75
 44
1.25
 45
0.0
 46
0.0
 47
0.0
 48
0.0
140
2.5
141
2.5
142
0.0
143
0.03937007874016
144
1.0
145
0.0
146
1.0
147
0.625
 71
     0
 72
     0
 73
     0
 74
     0
 75
     0
 76
     0
 77
     1
 78
     8
170
     0
171
     3
172
     1
173
     0
174
     0
175
     0
176
     0
177
     0
178
     0
270
     2
271
     2
272
     2
273
     2
274
     3
340
11
275
     0
280
     0
281
     0
282
     0
283
     0
284
     8
285
     0
286
     0
287
     3
288
     0
  0
ENDTAB
  0
TABLE
  2
BLOCK_RECORD
  5
1
330
0
100
AcDbSymbolTable
 70
     1
  0
BLOCK_RECORD
  5
1F
330
1
100
AcDbSymbolTableRecord
100
AcDbBlockTableRecord
  2
*MODEL_SPACE
  0
BLOCK_RECORD
  5
1B
330
1
100
AcDbSymbolTableRecord
100
AcDbBlockTableRecord
  2
*PAPER_SPACE
  0
ENDTAB
  0
ENDSEC
  0
SECTION
  2
BLOCKS
  0
BLOCK
  5
20
330
1F
100
AcDbEntity
  8
0
100
AcDbBlockBegin
  2
*MODEL_SPACE
 70
     0
 10
0.0
 20
0.0
 30
0.0
  3
*MODEL_SPACE
  1

  0
ENDBLK
  5
21
330
1F
100
AcDbEntity
  8
0
100
AcDbBlockEnd
  0
BLOCK
  5
1C
330
1B
100
AcDbEntity
 67
     1
  8
0
100
AcDbBlockBegin
  2
*PAPER_SPACE
  1

  0
ENDBLK
  5
1D
330
1B
100
AcDbEntity
 67
     1
  8
0
100
AcDbBlockEnd
  0
ENDSEC
  0
SECTION
  2
ENTITIES
  0
LWPOLYLINE
  5
100
100
AcDbEntity
  8
0
 62
7
100
AcDbPolyline
 90
73
 70
0
 10
84.097425
 20
3.257985
 30
0.0
 10
62.560999
 20
26.882892
 30
0.0
 10
30.381175
 20
63.807820
 30
0.0
 10
24.671994
 20
70.461869
 30
0.0
 10
18.962814
 20
77.115918
 30
0.0
 10
14.257388
 20
90.418426
 30
0.0
 10
9.551962
 20
103.720931
 30
0.0
 10
4.846536
 20
117.023436
 30
0.0
 10
0.141111
 20
130.325941
 30
0.0
 10
0.225004
 20
134.488722
 30
0.0
 10
0.308898
 20
138.651499
 30
0.0
 10
0.542091
 20
147.225760
 30
0.0
 10
0.867128
 20
156.149274
 30
0.0
 10
1.453689
 20
165.694436
 30
0.0
 10
3.132144
 20
177.315941
 30
0.0
 10
5.265517
 20
190.532941
 30
0.0
 10
6.152745
 20
194.072798
 30
0.0
 10
12.185809
 20
201.952544
 30
0.0
 10
19.311492
 20
210.868108
 30
0.0
 10
20.592744
 20
211.991609
 30
0.0
 10
22.980682
 20
212.489232
 30
0.0
 10
35.111769
 20
214.063419
 30
0.0
 10
42.508266
 20
214.737919
 30
0.0
 10
45.279765
 20
213.980197
 30
0.0
 10
50.551600
 20
212.374370
 30
0.0
 10
54.077788
 20
211.269476
 30
0.0
 10
57.603980
 20
210.164581
 30
0.0
 10
61.272869
 20
207.664253
 30
0.0
 10
64.941758
 20
205.163922
 30
0.0
 10
68.610647
 20
202.663594
 30
0.0
 10
72.279536
 20
200.163263
 30
0.0
 10
75.811123
 20
196.633691
 30
0.0
 10
79.342708
 20
193.104115
 30
0.0
 10
82.874293
 20
189.574543
 30
0.0
 10
86.405881
 20
186.044967
 30
0.0
 10
89.506516
 20
188.907860
 30
0.0
 10
92.607153
 20
191.770751
 30
0.0
 10
100.458981
 20
198.788968
 30
0.0
 10
106.992869
 20
203.709366
 30
0.0
 10
110.525738
 20
206.204718
 30
0.0
 10
113.471291
 20
208.286480
 30
0.0
 10
116.469355
 20
210.077609
 30
0.0
 10
121.655736
 20
211.886865
 30
0.0
 10
130.691727
 20
214.562526
 30
0.0
 10
135.751350
 20
214.443903
 30
0.0
 10
147.872450
 20
212.878286
 30
0.0
 10
153.328844
 20
211.868724
 30
0.0
 10
156.093586
 20
208.878892
 30
0.0
 10
162.982422
 20
200.228872
 30
0.0
 10
165.555541
 20
196.939227
 30
0.0
 10
168.128657
 20
193.649580
 30
0.0
 10
169.313493
 20
186.355891
 30
0.0
 10
170.498333
 20
179.062208
 30
0.0
 10
171.683169
 20
171.768522
 30
0.0
 10
172.868006
 20
164.474833
 30
0.0
 10
173.226722
 20
157.762476
 30
0.0
 10
173.585438
 20
151.050123
 30
0.0
 10
174.291905
 20
133.759708
 30
0.0
 10
173.567799
 20
127.377170
 30
0.0
 10
164.662505
 20
101.385745
 30
0.0
 10
156.001370
 20
77.086144
 30
0.0
 10
155.168597
 20
75.684580
 30
0.0
 10
153.940412
 20
74.120570
 30
0.0
 10
150.260285
 20
70.037017
 30
0.0
 10
143.532426
 20
62.577847
 30
0.0
 10
124.026219
 20
40.819166
 30
0.0
 10
105.586849
 20
19.977052
 30
0.0
 10
92.938956
 20
5.660430
 30
0.0
 10
87.874916
 20
0.141094
 30
0.0
 10
86.901373
 20
0.528360
 30
0.0
 10
84.097419
 20
3.257985
 30
0.0
 10
84.097422
 20
3.257985
 30
0.0
 10
84.097425
 20
3.257985
 30
0.0
  0
ENDSEC
  0
SECTION
  2
OBJECTS
  0
DICTIONARY
  5
C
330
0
100
AcDbDictionary
  3
ACAD_GROUP
350
D
  3
ACAD_MLINESTYLE
350
17
  0
DICTIONARY
  5
D
330
C
100
AcDbDictionary
  0
DICTIONARY
  5
1A
330
C
100
AcDbDictionary
  0
DICTIONARY
  5
17
330
C
100
AcDbDictionary
  3
STANDARD
350
18
  0
DICTIONARY
  5
19
330
C
100
AcDbDictionary
  0
ENDSEC
  0
EOF
