999
DXF created by Inkscape
  0
SECTION
  2
HEADER
  9
$ACADVER
  1
AC1014
  9
$HANDSEED
  5
FFFF
  9
$MEASUREMENT
 70
     1
  0
ENDSEC
  0
SECTION
  2
TABLES
  0
TABLE
  2
VPORT
  5
8
330
0
100
AcDbSymbolTable
 70
     4
  0
VPORT
  5
2E
330
8
100
AcDbSymbolTableRecord
100
AcDbViewportTableRecord
  2
*ACTIVE
 70
     0
 10
0.0
 20
0.0
 11
1.0
 21
1.0
 12
210.0
 22
148.5
 13
0.0
 23
0.0
 14
10.0
 24
10.0
 15
10.0
 25
10.0
 16
0.0
 26
0.0
 36
1.0
 17
0.0
 27
0.0
 37
0.0
 40
341.0
 41
1.24
 42
50.0
 43
0.0
 44
0.0
 50
0.0
 51
0.0
 71
     0
 72
   100
 73
     1
 74
     3
 75
     0
 76
     0
 77
     0
 78
     0
  0
ENDTAB
  0
TABLE
  2
LTYPE
  5
5
330
0
100
AcDbSymbolTable
 70
     1
  0
LTYPE
  5
14
330
5
100
AcDbSymbolTableRecord
100
AcDbLinetypeTableRecord
  2
BYBLOCK
 70
     0
  3

 72
    65
 73
     0
 40
0.0
  0
LTYPE
  5
15
330
5
100
AcDbSymbolTableRecord
100
AcDbLinetypeTableRecord
  2
BYLAYER
 70
     0
  3

 72
    65
 73
     0
 40
0.0
  0
LTYPE
  5
16
330
5
100
AcDbSymbolTableRecord
100
AcDbLinetypeTableRecord
  2
CONTINUOUS
 70
     0
  3
Solid line
 72
    65
 73
     0
 40
0.0
  0
ENDTAB
  0
TABLE
  2
LAYER
  5
2
100
AcDbSymbolTable
 70
1
  0
LAYER
  5
50
100
AcDbSymbolTableRecord
100
AcDbLayerTableRecord
  2
0
 70
0
  6
CONTINUOUS
  0
ENDTAB
  0
TABLE
  2
STYLE
  5
3
330
0
100
AcDbSymbolTable
 70
     1
  0
STYLE
  5
11
330
3
100
AcDbSymbolTableRecord
100
AcDbTextStyleTableRecord
  2
STANDARD
 70
     0
 40
0.0
 41
1.0
 50
0.0
 71
     0
 42
2.5
  3
txt
  4

  0
ENDTAB
  0
TABLE
  2
VIEW
  5
6
330
0
100
AcDbSymbolTable
 70
     0
  0
ENDTAB
  0
TABLE
  2
UCS
  5
7
330
0
100
AcDbSymbolTable
 70
     0
  0
ENDTAB
  0
TABLE
  2
APPID
  5
9
330
0
100
AcDbSymbolTable
 70
     2
  0
APPID
  5
12
330
9
100
AcDbSymbolTableRecord
100
AcDbRegAppTableRecord
  2
ACAD
 70
     0
  0
ENDTAB
  0
TABLE
  2
DIMSTYLE
  5
A
330
0
100
AcDbSymbolTable
 70
     1
  0
DIMSTYLE
105
27
330
A
100
AcDbSymbolTableRecord
100
AcDbDimStyleTableRecord
  2
ISO-25
 70
     0
  3

  4

  5

  6

  7

 40
1.0
 41
2.5
 42
0.625
 43
3.75
 44
1.25
 45
0.0
 46
0.0
 47
0.0
 48
0.0
140
2.5
141
2.5
142
0.0
143
0.03937007874016
144
1.0
145
0.0
146
1.0
147
0.625
 71
     0
 72
     0
 73
     0
 74
     0
 75
     0
 76
     0
 77
     1
 78
     8
170
     0
171
     3
172
     1
173
     0
174
     0
175
     0
176
     0
177
     0
178
     0
270
     2
271
     2
272
     2
273
     2
274
     3
340
11
275
     0
280
     0
281
     0
282
     0
283
     0
284
     8
285
     0
286
     0
287
     3
288
     0
  0
ENDTAB
  0
TABLE
  2
BLOCK_RECORD
  5
1
330
0
100
AcDbSymbolTable
 70
     1
  0
BLOCK_RECORD
  5
1F
330
1
100
AcDbSymbolTableRecord
100
AcDbBlockTableRecord
  2
*MODEL_SPACE
  0
BLOCK_RECORD
  5
1B
330
1
100
AcDbSymbolTableRecord
100
AcDbBlockTableRecord
  2
*PAPER_SPACE
  0
ENDTAB
  0
ENDSEC
  0
SECTION
  2
BLOCKS
  0
BLOCK
  5
20
330
1F
100
AcDbEntity
  8
0
100
AcDbBlockBegin
  2
*MODEL_SPACE
 70
     0
 10
0.0
 20
0.0
 30
0.0
  3
*MODEL_SPACE
  1

  0
ENDBLK
  5
21
330
1F
100
AcDbEntity
  8
0
100
AcDbBlockEnd
  0
BLOCK
  5
1C
330
1B
100
AcDbEntity
 67
     1
  8
0
100
AcDbBlockBegin
  2
*PAPER_SPACE
  1

  0
ENDBLK
  5
1D
330
1B
100
AcDbEntity
 67
     1
  8
0
100
AcDbBlockEnd
  0
ENDSEC
  0
SECTION
  2
ENTITIES
  0
LWPOLYLINE
  5
100
100
AcDbEntity
  8
0
 62
7
100
AcDbPolyline
 90
169
 70
0
 10
12.306398
 20
63.408803
 30
0.0
 10
11.075838
 20
63.280098
 30
0.0
 10
9.845278
 20
63.151393
 30
0.0
 10
8.754921
 20
62.793866
 30
0.0
 10
7.664564
 20
62.436335
 30
0.0
 10
6.713756
 20
61.868772
 30
0.0
 10
5.762948
 20
61.301209
 30
0.0
 10
4.951036
 20
60.542401
 30
0.0
 10
4.139123
 20
59.783593
 30
0.0
 10
3.465453
 20
58.852328
 30
0.0
 10
2.791782
 20
57.921065
 30
0.0
 10
2.255700
 20
56.836135
 30
0.0
 10
1.719618
 20
55.751205
 30
0.0
 10
1.320471
 20
54.531398
 30
0.0
 10
0.921323
 20
53.311594
 30
0.0
 10
0.658457
 20
51.975701
 30
0.0
 10
0.395590
 20
50.639808
 30
0.0
 10
0.268351
 20
49.206618
 30
0.0
 10
0.141111
 20
47.773426
 30
0.0
 10
0.148845
 20
46.261723
 30
0.0
 10
0.156579
 20
44.750022
 30
0.0
 10
0.298633
 20
43.178603
 30
0.0
 10
0.440687
 20
41.607184
 30
0.0
 10
0.716408
 20
39.994832
 30
0.0
 10
0.992128
 20
38.382482
 30
0.0
 10
1.400861
 20
36.747995
 30
0.0
 10
1.809593
 20
35.113505
 30
0.0
 10
2.350685
 20
33.475662
 30
0.0
 10
2.891777
 20
31.837822
 30
0.0
 10
3.564574
 20
30.215419
 30
0.0
 10
4.237371
 20
28.593017
 30
0.0
 10
5.041220
 20
27.004840
 30
0.0
 10
5.845068
 20
25.416665
 30
0.0
 10
6.325656
 20
24.562486
 30
0.0
 10
6.806244
 20
23.708306
 30
0.0
 10
7.262723
 20
22.924742
 30
0.0
 10
7.719202
 20
22.141174
 30
0.0
 10
8.163186
 20
21.414971
 30
0.0
 10
8.607169
 20
20.688766
 30
0.0
 10
9.050269
 20
20.006668
 30
0.0
 10
9.493368
 20
19.324571
 30
0.0
 10
9.947197
 20
18.673332
 30
0.0
 10
10.401026
 20
18.022090
 30
0.0
 10
10.877197
 20
17.388456
 30
0.0
 10
11.353367
 20
16.754819
 30
0.0
 10
11.863493
 20
16.125531
 30
0.0
 10
12.373618
 20
15.496241
 30
0.0
 10
12.929311
 20
14.858046
 30
0.0
 10
13.485003
 20
14.219851
 30
0.0
 10
14.097875
 20
13.559508
 30
0.0
 10
14.710747
 20
12.899164
 30
0.0
 10
15.392412
 20
12.203430
 30
0.0
 10
16.074076
 20
11.507668
 30
0.0
 10
16.836147
 20
10.763250
 30
0.0
 10
17.598217
 20
10.018832
 30
0.0
 10
18.452305
 20
9.212524
 30
0.0
 10
19.306393
 20
8.406186
 30
0.0
 10
20.264112
 20
7.524694
 30
0.0
 10
21.221831
 20
6.643201
 30
0.0
 10
22.294793
 20
5.673288
 30
0.0
 10
23.367754
 20
4.703374
 30
0.0
 10
24.567573
 20
3.631805
 30
0.0
 10
25.767391
 20
2.560207
 30
0.0
 10
27.105678
 20
1.373688
 30
0.0
 10
28.443965
 20
0.187170
 30
0.0
 10
29.355583
 20
0.953064
 30
0.0
 10
29.967900
 20
1.487706
 30
0.0
 10
30.611601
 20
2.051163
 30
0.0
 10
31.170068
 20
2.559840
 30
0.0
 10
32.368914
 20
3.630902
 30
0.0
 10
33.567761
 20
4.701992
 30
0.0
 10
34.639223
 20
5.671114
 30
0.0
 10
35.710685
 20
6.640266
 30
0.0
 10
36.666462
 20
7.520742
 30
0.0
 10
37.622238
 20
8.401219
 30
0.0
 10
38.474030
 20
9.206343
 30
0.0
 10
39.325825
 20
10.011495
 30
0.0
 10
40.085333
 20
10.754558
 30
0.0
 10
40.844844
 20
11.497649
 30
0.0
 10
41.523772
 20
12.191972
 30
0.0
 10
42.202702
 20
12.886323
 30
0.0
 10
42.812751
 20
13.545199
 30
0.0
 10
43.422800
 20
14.204075
 30
0.0
 10
43.975667
 20
14.840797
 30
0.0
 10
44.528538
 20
15.477518
 30
0.0
 10
45.035928
 20
16.105384
 30
0.0
 10
45.543322
 20
16.733249
 30
0.0
 10
46.016938
 20
17.365557
 30
0.0
 10
46.490555
 20
17.997867
 30
0.0
 10
46.942094
 20
18.647915
 30
0.0
 10
47.393633
 20
19.297966
 30
0.0
 10
47.834797
 20
19.979056
 30
0.0
 10
48.275964
 20
20.660148
 30
0.0
 10
48.718457
 20
21.385575
 30
0.0
 10
49.160948
 20
22.111005
 30
0.0
 10
49.616466
 20
22.894073
 30
0.0
 10
50.071986
 20
23.677143
 30
0.0
 10
50.552233
 20
24.531148
 30
0.0
 10
51.032482
 20
25.385152
 30
0.0
 10
52.055941
 20
27.466468
 30
0.0
 10
53.079397
 20
29.547786
 30
0.0
 10
53.879127
 20
31.677630
 30
0.0
 10
54.678855
 20
33.807476
 30
0.0
 10
55.253392
 20
35.944028
 30
0.0
 10
55.827928
 20
38.080583
 30
0.0
 10
56.175818
 20
40.182027
 30
0.0
 10
56.523708
 20
42.283470
 30
0.0
 10
56.643488
 20
44.307983
 30
0.0
 10
56.763269
 20
46.332498
 30
0.0
 10
56.653482
 20
48.238266
 30
0.0
 10
56.543695
 20
50.144034
 30
0.0
 10
56.202877
 20
51.889237
 30
0.0
 10
55.862057
 20
53.634440
 30
0.0
 10
55.288754
 20
55.177255
 30
0.0
 10
54.715448
 20
56.720074
 30
0.0
 10
53.908193
 20
58.018691
 30
0.0
 10
53.100939
 20
59.317311
 30
0.0
 10
52.058278
 20
60.329905
 30
0.0
 10
51.015613
 20
61.342501
 30
0.0
 10
49.736083
 20
62.027257
 30
0.0
 10
48.456549
 20
62.712016
 30
0.0
 10
46.938687
 20
63.027117
 30
0.0
 10
45.420829
 20
63.342218
 30
0.0
 10
43.663180
 20
63.245842
 30
0.0
 10
41.905531
 20
63.149466
 30
0.0
 10
39.906633
 20
62.599799
 30
0.0
 10
37.907737
 20
62.050134
 30
0.0
 10
36.885280
 20
61.673918
 30
0.0
 10
35.862826
 20
61.297704
 30
0.0
 10
34.842767
 20
60.818559
 30
0.0
 10
33.822706
 20
60.339416
 30
0.0
 10
32.724506
 20
59.730640
 30
0.0
 10
31.626303
 20
59.121864
 30
0.0
 10
30.790649
 20
58.507365
 30
0.0
 10
29.954994
 20
57.892865
 30
0.0
 10
29.211728
 20
57.322257
 30
0.0
 10
28.468459
 20
56.751652
 30
0.0
 10
27.837083
 20
57.213170
 30
0.0
 10
27.242783
 20
57.654653
 30
0.0
 10
26.651177
 20
58.045330
 30
0.0
 10
26.059572
 20
58.436008
 30
0.0
 10
25.481442
 20
58.795934
 30
0.0
 10
24.903312
 20
59.155861
 30
0.0
 10
24.338638
 20
59.485570
 30
0.0
 10
23.773963
 20
59.815281
 30
0.0
 10
23.222722
 20
60.115317
 30
0.0
 10
22.671482
 20
60.415356
 30
0.0
 10
22.133655
 20
60.686261
 30
0.0
 10
21.595828
 20
60.957164
 30
0.0
 10
21.071395
 20
61.199471
 30
0.0
 10
20.546962
 20
61.441782
 30
0.0
 10
20.035901
 20
61.656031
 30
0.0
 10
19.524840
 20
61.870282
 30
0.0
 10
19.027131
 20
62.057020
 30
0.0
 10
18.529422
 20
62.243758
 30
0.0
 10
18.045043
 20
62.403516
 30
0.0
 10
17.560665
 20
62.563273
 30
0.0
 10
17.089598
 20
62.696601
 30
0.0
 10
16.618531
 20
62.829925
 30
0.0
 10
16.160753
 20
62.937350
 30
0.0
 10
15.702975
 20
63.044776
 30
0.0
 10
15.258466
 20
63.126843
 30
0.0
 10
14.813958
 20
63.208910
 30
0.0
 10
14.382698
 20
63.266159
 30
0.0
 10
13.951437
 20
63.323408
 30
0.0
 10
13.533405
 20
63.356377
 30
0.0
 10
13.115373
 20
63.389346
 30
0.0
 10
12.710688
 20
63.399055
 30
0.0
 10
12.306003
 20
63.408763
 30
0.0
  0
ENDSEC
  0
SECTION
  2
OBJECTS
  0
DICTIONARY
  5
C
330
0
100
AcDbDictionary
  3
ACAD_GROUP
350
D
  3
ACAD_MLINESTYLE
350
17
  0
DICTIONARY
  5
D
330
C
100
AcDbDictionary
  0
DICTIONARY
  5
1A
330
C
100
AcDbDictionary
  0
DICTIONARY
  5
17
330
C
100
AcDbDictionary
  3
STANDARD
350
18
  0
DICTIONARY
  5
19
330
C
100
AcDbDictionary
  0
ENDSEC
  0
EOF
